<svg xmlns="http://www.w3.org/2000/svg" enable-background="new 0 0 32 32" viewBox="0 0 32 32" id="bio">
  <g id="Bio">
    <path fill="#6621ba" d="M9.811,7.29C5.007,7.29,1.1,11.197,1.1,16c0,4.803,3.907,8.711,8.71,8.711s8.711-3.908,8.711-8.711
		C18.521,11.197,14.614,7.29,9.811,7.29z M6.139,21.844c0.891-1.096,2.233-1.758,3.671-1.758s2.78,0.662,3.671,1.758
		c-1.065,0.671-2.322,1.066-3.671,1.066S7.205,22.515,6.139,21.844z M9.811,18.284c-1.26,0-2.285-1.024-2.285-2.284
		s1.025-2.285,2.285-2.285S12.095,14.74,12.095,16S11.07,18.284,9.811,18.284z M14.865,20.697c-0.611-0.748-1.374-1.343-2.233-1.756
		c0.775-0.744,1.264-1.785,1.264-2.942c0-2.252-1.832-4.084-4.084-4.084S5.726,13.748,5.726,16c0,1.157,0.488,2.198,1.264,2.942
		c-0.859,0.413-1.622,1.008-2.233,1.756C3.608,19.463,2.9,17.815,2.9,16c0-3.811,3.1-6.911,6.911-6.911s6.911,3.1,6.911,6.911
		C16.721,17.815,16.013,19.463,14.865,20.697z"></path>
    <path fill="#f98a17" d="M30 12.869h-9.067c-.497 0-.9.403-.9.9s.403.9.9.9H30c.497 0 .9-.403.9-.9S30.497 12.869 30 12.869zM25.29 17.331h-4.354c-.497 0-.9.403-.9.9s.403.9.9.9h4.354c.497 0 .9-.403.9-.9S25.787 17.331 25.29 17.331z"></path>
  </g>
</svg>
