<svg xmlns="http://www.w3.org/2000/svg" xml:space="preserve" style="fill-rule:evenodd;clip-rule:evenodd;stroke-linejoin:round;stroke-miterlimit:2" viewBox="0 0 4000 4000" id="cleaner-trash">
  <g transform="translate(-9250 -61375)">
    <g transform="translate(9095.18 62840.6)scale(75.6883)">
      <path d="M10.72,6.56L11.725,9.275L14.44,10.28L11.725,11.285L10.72,14L9.715,11.285L7,10.28L9.715,9.275L10.72,6.56Z" style="fill:#3db2ff"></path>
    </g>
    <g transform="translate(9095.18 62840.6)scale(75.6883)">
      <path d="M10.952,6.474C10.916,6.377 10.824,6.312 10.72,6.312C10.616,6.312 10.524,6.377 10.488,6.474L9.523,9.082C9.523,9.082 6.914,10.048 6.914,10.048C6.817,10.084 6.752,10.176 6.752,10.28C6.752,10.384 6.817,10.476 6.914,10.512L9.523,11.477C9.523,11.477 10.488,14.086 10.488,14.086C10.524,14.183 10.616,14.248 10.72,14.248C10.824,14.248 10.916,14.183 10.952,14.086L11.918,11.477C11.918,11.477 14.526,10.512 14.526,10.512C14.623,10.476 14.688,10.384 14.688,10.28C14.688,10.176 14.623,10.084 14.526,10.048L11.918,9.082C11.918,9.082 10.952,6.474 10.952,6.474ZM10.72,7.274L11.493,9.361C11.518,9.429 11.571,9.482 11.639,9.507L13.726,10.28C13.726,10.28 11.639,11.052 11.639,11.052C11.571,11.077 11.518,11.131 11.493,11.199L10.72,13.286C10.72,13.286 9.948,11.199 9.948,11.199C9.923,11.131 9.869,11.077 9.801,11.052L7.714,10.28C7.714,10.28 9.801,9.507 9.801,9.507C9.869,9.482 9.923,9.429 9.948,9.361L10.72,7.274Z" style="fill:#001230"></path>
    </g>
    <g transform="translate(11782 63440.4)scale(75.6883)">
      <path d="M10.72,6.56L11.725,9.275L14.44,10.28L11.725,11.285L10.72,14L9.715,11.285L7,10.28L9.715,9.275L10.72,6.56Z" style="fill:#3db2ff"></path>
    </g>
    <g transform="translate(11782 63440.4)scale(75.6883)">
      <path d="M10.952,6.474C10.916,6.377 10.824,6.312 10.72,6.312C10.616,6.312 10.524,6.377 10.488,6.474L9.523,9.082C9.523,9.082 6.914,10.048 6.914,10.048C6.817,10.084 6.752,10.176 6.752,10.28C6.752,10.384 6.817,10.476 6.914,10.512L9.523,11.477C9.523,11.477 10.488,14.086 10.488,14.086C10.524,14.183 10.616,14.248 10.72,14.248C10.824,14.248 10.916,14.183 10.952,14.086L11.918,11.477C11.918,11.477 14.526,10.512 14.526,10.512C14.623,10.476 14.688,10.384 14.688,10.28C14.688,10.176 14.623,10.084 14.526,10.048L11.918,9.082C11.918,9.082 10.952,6.474 10.952,6.474ZM10.72,7.274L11.493,9.361C11.518,9.429 11.571,9.482 11.639,9.507L13.726,10.28C13.726,10.28 11.639,11.052 11.639,11.052C11.571,11.077 11.518,11.131 11.493,11.199L10.72,13.286C10.72,13.286 9.948,11.199 9.948,11.199C9.923,11.131 9.869,11.077 9.801,11.052L7.714,10.28C7.714,10.28 9.801,9.507 9.801,9.507C9.869,9.482 9.923,9.429 9.948,9.361L10.72,7.274Z" style="fill:#001230"></path>
    </g>
    <g transform="matrix(125 0 0 125 0 47500)">
      <path d="M81.754,131L82.63,133.37L85,134.246L82.63,135.123L81.754,137.493L80.877,135.123L78.507,134.246L80.877,133.37L81.754,131ZM98.754,124.507L99.63,126.877L102,127.754L99.63,128.63L98.754,131L97.877,128.63L95.507,127.754L97.877,126.877L98.754,124.507Z" style="fill:#3db2ff"></path>
    </g>
    <g transform="matrix(125 0 0 125 0 47500)">
      <path d="M81.894,130.948C81.872,130.889 81.816,130.85 81.754,130.85C81.691,130.85 81.635,130.889 81.613,130.948L80.76,133.253C80.76,133.253 78.455,134.106 78.455,134.106C78.396,134.128 78.357,134.184 78.357,134.246C78.357,134.309 78.396,134.365 78.455,134.387L80.76,135.24C80.76,135.24 81.613,137.545 81.613,137.545C81.635,137.604 81.691,137.643 81.754,137.643C81.816,137.643 81.872,137.604 81.894,137.545L82.747,135.24C82.747,135.24 85.052,134.387 85.052,134.387C85.111,134.365 85.15,134.309 85.15,134.246C85.15,134.184 85.111,134.128 85.052,134.106L82.747,133.253C82.747,133.253 81.894,130.948 81.894,130.948ZM81.754,131.432L82.49,133.422C82.505,133.463 82.537,133.495 82.578,133.51L84.568,134.246C84.568,134.246 82.578,134.983 82.578,134.983C82.537,134.998 82.505,135.03 82.49,135.071L81.754,137.061C81.754,137.061 81.017,135.071 81.017,135.071C81.002,135.03 80.97,134.998 80.929,134.983L78.939,134.246C78.939,134.246 80.929,133.51 80.929,133.51C80.97,133.495 81.002,133.463 81.017,133.422L81.754,131.432ZM98.894,124.455C98.872,124.396 98.816,124.357 98.754,124.357C98.691,124.357 98.635,124.396 98.613,124.455L97.76,126.76C97.76,126.76 95.455,127.613 95.455,127.613C95.396,127.635 95.357,127.691 95.357,127.754C95.357,127.816 95.396,127.872 95.455,127.894L97.76,128.747C97.76,128.747 98.613,131.052 98.613,131.052C98.635,131.111 98.691,131.15 98.754,131.15C98.816,131.15 98.872,131.111 98.894,131.052L99.747,128.747C99.747,128.747 102.052,127.894 102.052,127.894C102.111,127.872 102.15,127.816 102.15,127.754C102.15,127.691 102.111,127.635 102.052,127.613L99.747,126.76C99.747,126.76 98.894,124.455 98.894,124.455ZM98.754,124.939L99.49,126.929C99.505,126.97 99.537,127.002 99.578,127.017L101.568,127.754C101.568,127.754 99.578,128.49 99.578,128.49C99.537,128.505 99.505,128.537 99.49,128.578L98.754,130.568C98.754,130.568 98.017,128.578 98.017,128.578C98.002,128.537 97.97,128.505 97.929,128.49L95.939,127.754C95.939,127.754 97.929,127.017 97.929,127.017C97.97,127.002 98.002,126.97 98.017,126.929L98.754,124.939Z" style="fill:#001230"></path>
    </g>
    <g transform="matrix(125 0 0 125 0 47500)">
      <path d="M98.21,125.975L97.877,126.877L95.507,127.754L97.877,128.63L97.884,128.65L96.5,140L83.5,140L82.893,135.026L85,134.246L82.694,133.393L81,119.5L99,119.5L98.21,125.975Z" style="fill:#ff2442"></path>
    </g>
    <g transform="matrix(125 0 0 125 0 47500)">
      <path d="M98.033,128.669C98.036,128.648 98.034,128.624 98.025,128.598L98.015,128.572C97.999,128.535 97.969,128.504 97.929,128.49L95.939,127.754C95.939,127.754 97.929,127.017 97.929,127.017C97.97,127.002 98.002,126.97 98.017,126.929L98.351,126.027C98.355,126.016 98.358,126.005 98.359,125.993L99.149,119.518C99.154,119.476 99.141,119.433 99.112,119.401C99.084,119.368 99.043,119.35 99,119.35L81,119.35C80.957,119.35 80.916,119.368 80.888,119.401C80.859,119.433 80.846,119.476 80.851,119.518L82.545,133.411C82.552,133.467 82.59,133.514 82.642,133.534L84.568,134.246C84.568,134.246 82.841,134.885 82.841,134.885C82.776,134.909 82.736,134.975 82.745,135.044L83.351,140.018C83.36,140.093 83.424,140.15 83.5,140.15L96.5,140.15C96.576,140.15 96.64,140.093 96.649,140.018L98.033,128.669L98.033,128.669ZM97.723,128.733L96.367,139.85C96.367,139.85 83.633,139.85 83.633,139.85C83.633,139.85 83.057,135.125 83.057,135.125C83.057,135.125 85.052,134.387 85.052,134.387C85.111,134.365 85.15,134.309 85.15,134.246C85.15,134.184 85.111,134.128 85.052,134.106L82.832,133.284C82.832,133.284 81.169,119.65 81.169,119.65C81.169,119.65 98.831,119.65 98.831,119.65L98.064,125.939L97.76,126.76C97.76,126.76 95.455,127.613 95.455,127.613C95.396,127.635 95.357,127.691 95.357,127.754C95.357,127.816 95.396,127.872 95.455,127.894L97.723,128.733Z" style="fill:#001230"></path>
    </g>
    <g transform="matrix(131.25 0 0 125 -431.25 47500)">
      <path d="M99,117.75C99,117.286 98.824,116.841 98.512,116.513C98.199,116.184 97.775,116 97.333,116C93.567,116 84.433,116 80.667,116C80.225,116 79.801,116.184 79.488,116.513C79.176,116.841 79,117.286 79,117.75C79,118.214 79.176,118.659 79.488,118.987C79.801,119.316 80.225,119.5 80.667,119.5C84.433,119.5 93.567,119.5 97.333,119.5C97.775,119.5 98.199,119.316 98.512,118.987C98.824,118.659 99,118.214 99,117.75Z" style="fill:#ffb830"></path>
    </g>
    <g transform="matrix(131.25 0 0 125 -431.25 47500)">
      <path d="M99.143,117.75C99.143,117.75 99.143,117.75 99.143,117.75C99.143,117.246 98.952,116.763 98.613,116.406C98.274,116.05 97.813,115.85 97.333,115.85C93.567,115.85 84.433,115.85 80.667,115.85C80.187,115.85 79.726,116.05 79.387,116.406C79.048,116.763 78.857,117.246 78.857,117.75L79,117.9C78.921,117.9 78.857,117.833 78.857,117.75C78.857,118.254 79.048,118.737 79.387,119.094C79.726,119.45 80.187,119.65 80.667,119.65C84.433,119.65 93.567,119.65 97.333,119.65C97.813,119.65 98.274,119.45 98.613,119.094C98.952,118.737 99.143,118.254 99.143,117.75ZM98.857,117.75C98.857,118.174 98.697,118.581 98.411,118.881C98.125,119.181 97.737,119.35 97.333,119.35L80.667,119.35C80.263,119.35 79.875,119.181 79.589,118.881C79.303,118.581 79.143,118.174 79.143,117.75C79.143,117.833 79.079,117.9 79,117.9C79,117.9 79.143,117.75 79.143,117.75C79.143,117.326 79.303,116.919 79.589,116.619C79.875,116.319 80.263,116.15 80.667,116.15L97.333,116.15C97.737,116.15 98.125,116.319 98.411,116.619C98.697,116.919 98.857,117.326 98.857,117.75Z" style="fill:#001230"></path>
    </g>
    <g transform="matrix(125 0 0 158.286 0 43638.8)">
      <path d="M94,116L86,116L88,114.421L92,114.421L94,116Z" style="fill:#ffedda"></path>
    </g>
    <g transform="matrix(125 0 0 158.286 0 43638.8)">
      <path d="M94,116.118C94.061,116.118 94.115,116.09 94.139,116.045C94.162,116.001 94.149,115.95 94.106,115.916L92.106,114.337C92.078,114.315 92.04,114.302 92,114.302L88,114.302C87.96,114.302 87.922,114.315 87.894,114.337L85.894,115.916C85.851,115.95 85.838,116.001 85.861,116.045C85.885,116.09 85.939,116.118 86,116.118L94,116.118ZM93.638,115.882L86.362,115.882C86.362,115.882 88.062,114.539 88.062,114.539C88.062,114.539 91.938,114.539 91.938,114.539L93.638,115.882Z" style="fill:#001230"></path>
    </g>
    <g transform="matrix(125 0 0 125 21.548 47562.5)">
      <rect width="1.655" height="9" x="89" y="123" style="fill:#ffedda"></rect>
    </g>
    <g transform="matrix(125 0 0 125 21.548 47562.5)">
      <path d="M90.805,123C90.805,122.917 90.738,122.85 90.655,122.85L89,122.85C88.917,122.85 88.85,122.917 88.85,123L88.85,132C88.85,132.083 88.917,132.15 89,132.15L90.655,132.15C90.738,132.15 90.805,132.083 90.805,132L90.805,123ZM90.505,123.15L90.505,131.85C90.505,131.85 89.15,131.85 89.15,131.85C89.15,131.85 89.15,123.15 89.15,123.15C89.15,123.15 90.505,123.15 90.505,123.15Z" style="fill:#001230"></path>
    </g>
    <g transform="matrix(125 0 0 125 -478.452 47562.5)">
      <rect width="1.655" height="9" x="89" y="123" style="fill:#ffedda"></rect>
    </g>
    <g transform="matrix(125 0 0 125 -478.452 47562.5)">
      <path d="M90.805,123C90.805,122.917 90.738,122.85 90.655,122.85L89,122.85C88.917,122.85 88.85,122.917 88.85,123L88.85,132C88.85,132.083 88.917,132.15 89,132.15L90.655,132.15C90.738,132.15 90.805,132.083 90.805,132L90.805,123ZM90.505,123.15L90.505,131.85C90.505,131.85 89.15,131.85 89.15,131.85C89.15,131.85 89.15,123.15 89.15,123.15C89.15,123.15 90.505,123.15 90.505,123.15Z" style="fill:#001230"></path>
    </g>
    <g transform="matrix(125 0 0 125 500 47562.5)">
      <rect width="1.655" height="9" x="89" y="123" style="fill:#ffedda"></rect>
    </g>
    <g transform="matrix(125 0 0 125 500 47562.5)">
      <path d="M90.805,123C90.805,122.917 90.738,122.85 90.655,122.85L89,122.85C88.917,122.85 88.85,122.917 88.85,123L88.85,132C88.85,132.083 88.917,132.15 89,132.15L90.655,132.15C90.738,132.15 90.805,132.083 90.805,132L90.805,123ZM90.505,123.15L90.505,131.85C90.505,131.85 89.15,131.85 89.15,131.85C89.15,131.85 89.15,123.15 89.15,123.15C89.15,123.15 90.505,123.15 90.505,123.15Z" style="fill:#001230"></path>
    </g>
    <g transform="matrix(125 0 0 125 0 47500)">
      <path d="M84.547,138.15L90,138.15C90.083,138.15 90.15,138.083 90.15,138C90.15,137.917 90.083,137.85 90,137.85L84.547,137.85C84.465,137.85 84.397,137.917 84.397,138C84.397,138.083 84.465,138.15 84.547,138.15Z" style="fill:#001230"></path>
    </g>
    <g transform="matrix(125 0 0 125 0 47500)">
      <path d="M84.547,138.15L90,138.15C90.083,138.15 90.15,138.083 90.15,138C90.15,137.917 90.083,137.85 90,137.85L84.547,137.85C84.465,137.85 84.397,137.917 84.397,138C84.397,138.083 84.465,138.15 84.547,138.15Z" style="fill:#001230"></path>
    </g>
    <g transform="matrix(56.9944 0 0 125 6620.5 47500)">
      <path d="M84.547,138.15L90,138.15C90.182,138.15 90.329,138.083 90.329,138C90.329,137.917 90.182,137.85 90,137.85L84.547,137.85C84.366,137.85 84.218,137.917 84.218,138C84.218,138.083 84.366,138.15 84.547,138.15Z" style="fill:#001230"></path>
    </g>
    <g transform="matrix(125 0 0 125 46.998 47498.2)">
      <path d="M98.852,117.343L98.852,117.343C98.852,117.343 98.852,117.346 98.853,117.349C98.86,117.408 98.889,117.714 98.678,117.94C98.51,118.12 98.198,118.239 97.639,118.184C97.556,118.176 97.483,118.236 97.475,118.319C97.467,118.401 97.527,118.474 97.609,118.483C98.307,118.551 98.688,118.369 98.897,118.145C99.195,117.825 99.161,117.395 99.151,117.312C99.138,117.215 99.071,117.328 99.03,117.406C99.121,117.203 99.05,117.158 98.975,117.17C98.894,117.184 98.839,117.261 98.852,117.343Z" style="fill:#001230"></path>
    </g>
    <g transform="matrix(125 0 0 125 125 47500)">
      <path d="M96,118.183L92,118.183C91.917,118.183 91.85,118.25 91.85,118.333C91.85,118.416 91.917,118.483 92,118.483L96,118.483C96.083,118.483 96.15,118.416 96.15,118.333C96.15,118.25 96.083,118.183 96,118.183Z" style="fill:#001230"></path>
    </g>
  </g>
</svg>
