<svg xmlns="http://www.w3.org/2000/svg" width="96" height="96" fill="none" viewBox="0 0 96 96" id="code">
  <path fill="url(#paint0_linear_1208_3222)" fill-rule="evenodd" d="M54.7921 17.0528C54.9808 15.6851 54.0249 14.4233 52.6572 14.2347C51.2894 14.046 50.0277 15.0019 49.839 16.3696L41.2072 78.9497C41.0186 80.3174 41.9744 81.5792 43.3422 81.7678C44.7099 81.9565 45.9717 81.0006 46.1603 79.6329L54.7921 17.0528ZM30.7677 24.2325C31.744 25.2088 31.744 26.7918 30.7677 27.7681L13.7174 44.8183C11.9601 46.5757 11.9601 49.4249 13.7174 51.1823L30.7677 68.2325C31.744 69.2088 31.744 70.7918 30.7677 71.7681C29.7914 72.7444 28.2085 72.7444 27.2321 71.7681L10.1819 54.7178C6.47192 51.0078 6.47192 44.9928 10.1819 41.2828L27.2321 24.2325C28.2085 23.2562 29.7914 23.2562 30.7677 24.2325ZM65.2322 24.2325C64.2558 25.2088 64.2558 26.7918 65.2322 27.7681L82.2824 44.8183C84.0398 46.5757 84.0398 49.4249 82.2824 51.1823L65.2322 68.2325C64.2558 69.2088 64.2558 70.7918 65.2322 71.7681C66.2085 72.7444 67.7914 72.7444 68.7677 71.7681L85.8179 54.7178C89.5279 51.0078 89.5279 44.9928 85.8179 41.2828L68.7677 24.2325C67.7914 23.2562 66.2085 23.2562 65.2322 24.2325Z" clip-rule="evenodd"></path>
  <defs>
    <linearGradient id="paint0_linear_1208_3222" x1="48" x2="48" y1="14.211" y2="81.792" gradientUnits="userSpaceOnUse">
      <stop stop-color="#FF1F00"></stop>
      <stop offset="1" stop-color="#FF8A00"></stop>
    </linearGradient>
  </defs>
</svg>
