<svg xmlns="http://www.w3.org/2000/svg" id="compliance" viewBox="0 0 64 64">
  <path d="m44,6H12c-2.76,0-5,2.24-5,5v41c0,2.76,2.24,5,5,5h32c2.76,0,5-2.24,5-5V11c0-2.76-2.24-5-5-5Z" style="fill:#17f2dc"></path>
  <path d="m44,10H12c-.55,0-1,.45-1,1v41c0,.55.45,1,1,1h32c.55,0,1-.45,1-1V11c0-.55-.45-1-1-1Z" style="fill:#146173"></path>
  <path d="m32.41,4.41l-.83-.83c-.38-.38-.88-.59-1.41-.59h-4.34c-.53,0-1.04.21-1.41.59l-.83.83c-.38.38-.88.59-1.41.59h-2.17c-1.1,0-2,.9-2,2v2c0,1.1.9,2,2,2h16c1.1,0,2-.9,2-2v-2c0-1.1-.9-2-2-2h-2.17c-.53,0-1.04-.21-1.41-.59Z" style="fill:#d98030"></path>
  <path d="m21.22,15.38l-3.3,4.13-1.21-1.21c-.39-.39-1.02-.39-1.41,0s-.39,1.02,0,1.41l2,2c.19.19.44.29.71.29.02,0,.04,0,.06,0,.28-.02.55-.15.73-.37l4-5c.34-.43.27-1.06-.16-1.41-.43-.34-1.06-.27-1.41.16Z" style="fill:#fff"></path>
  <rect width="6" height="6" x="16" y="25" rx="1" ry="1" style="fill:#fff"></rect>
  <rect width="6" height="6" x="16" y="34" rx="1" ry="1" style="fill:#fff"></rect>
  <rect width="6" height="6" x="16" y="43" rx="1" ry="1" style="fill:#fff"></rect>
  <path d="M27 18h13c.55 0 1-.45 1-1s-.45-1-1-1h-13c-.55 0-1 .45-1 1s.45 1 1 1ZM27 22h7c.55 0 1-.45 1-1s-.45-1-1-1h-7c-.55 0-1 .45-1 1s.45 1 1 1ZM40 25h-13c-.55 0-1 .45-1 1s.45 1 1 1h13c.55 0 1-.45 1-1s-.45-1-1-1ZM27 31h7c.55 0 1-.45 1-1s-.45-1-1-1h-7c-.55 0-1 .45-1 1s.45 1 1 1ZM40 34h-13c-.55 0-1 .45-1 1s.45 1 1 1h13c.55 0 1-.45 1-1s-.45-1-1-1ZM34 38h-7c-.55 0-1 .45-1 1s.45 1 1 1h7c.55 0 1-.45 1-1s-.45-1-1-1ZM34 43h-7c-.55 0-1 .45-1 1s.45 1 1 1h7c.55 0 1-.45 1-1s-.45-1-1-1ZM34 47h-7c-.55 0-1 .45-1 1s.45 1 1 1h7c.55 0 1-.45 1-1s-.45-1-1-1ZM27 8h2c.55 0 1-.45 1-1s-.45-1-1-1h-2c-.55 0-1 .45-1 1s.45 1 1 1Z" style="fill:#fff"></path>
  <circle cx="47" cy="51" r="10" style="fill:#d98030"></circle>
  <path d="m44.78,55.61h0c-.27,0-.52-.11-.71-.29l-2.78-2.78c-.39-.39-.39-1.02,0-1.41s1.02-.39,1.41,0l2.07,2.07,6.52-6.52c.39-.39,1.02-.39,1.41,0s.39,1.02,0,1.41l-7.22,7.22c-.19.19-.44.29-.71.29Z" style="fill:#fff"></path>
</svg>
