<svg xmlns="http://www.w3.org/2000/svg" width="128" height="128" fill="none" viewBox="0 0 128 128" id="contact">
  <path fill="url(#paint0_linear_533_70609)" fill-rule="evenodd" d="M34 12C28.4772 12 24 16.4772 24 22V26H29C30.1046 26 31 26.8954 31 28C31 29.1046 30.1046 30 29 30H24V50H29C30.1046 50 31 50.8954 31 52C31 53.1046 30.1046 54 29 54H24V74H29C30.1046 74 31 74.8954 31 76C31 77.1046 30.1046 78 29 78H24V98H29C30.1046 98 31 98.8954 31 100C31 101.105 30.1046 102 29 102H24V106C24 111.523 28.4772 116 34 116H92C97.5229 116 102 111.523 102 106V81V51.5V22C102 16.4772 97.5229 12 92 12H65H34ZM20 102V106C20 113.732 26.268 120 34 120H92C97.9931 120 103.107 116.234 105.104 110.94C110.107 110.39 114 106.15 114 101V78.1667V53.5833V27C114 21.8501 110.107 17.6095 105.104 17.0602C103.107 11.7658 97.9931 8 92 8H65H34C26.268 8 20 14.268 20 22V26H15C13.8954 26 13 26.8954 13 28C13 29.1046 13.8954 30 15 30H20V50H15C13.8954 50 13 50.8954 13 52C13 53.1046 13.8954 54 15 54H20V74H15C13.8954 74 13 74.8954 13 76C13 77.1046 13.8954 78 15 78H20V98H15C13.8954 98 13 98.8954 13 100C13 101.105 13.8954 102 15 102H20ZM105.985 106.664C108.323 105.845 110 103.618 110 101V78.1667V53.5833V27C110 24.3818 108.323 22.1553 105.985 21.336C105.995 21.556 106 21.7774 106 22V51.5V81V106C106 106.223 105.995 106.444 105.985 106.664ZM66.7744 31.5236L67.0314 31.4774C70.8653 30.7863 74.1866 33.8675 73.8581 37.5206L73.3678 42.9737C73.1472 45.427 70.8358 47.1386 68.4249 46.6339L67.7924 46.5015L66.7744 31.5236ZM62.8199 32.3289C56.7993 34.1058 52.1663 38.9582 50.9216 45.0879C48.3875 57.5686 48.3875 70.4314 50.9216 82.9121C52.2158 89.2859 57.1736 94.2786 63.5456 95.8686L63.4053 81.1309C62.0031 80.4628 60.8589 79.2695 60.2816 77.7211C56.982 68.8713 56.982 59.1287 60.2816 50.2789C60.9117 48.5888 62.2173 47.3217 63.7966 46.6991L62.8199 32.3289ZM67.4097 81.5786L67.5527 96.5939C71.1608 96.9314 74.1716 93.9658 73.8581 90.4794L73.3678 85.0263C73.1472 82.573 70.8358 80.8614 68.4249 81.3661L67.4097 81.5786ZM47.0016 44.292C48.7302 35.7791 55.6588 29.3543 64.2239 27.9064C64.9525 27.7832 65.6569 27.6608 66.3217 27.5409C72.6415 26.4016 78.4171 31.483 77.842 37.8788L77.3517 43.3319C76.9168 48.1692 72.3592 51.5441 67.6054 50.5491L66.4958 50.3168C65.4507 50.098 64.4026 50.6758 64.0296 51.6763C61.066 59.6248 61.066 68.3752 64.0296 76.3237C64.4026 77.3242 65.4507 77.902 66.4958 77.6832L67.6054 77.4509C72.3592 76.4559 76.9168 79.8308 77.3517 84.6681L77.842 90.1212C78.4171 96.517 72.6415 101.598 66.3217 100.459C65.6569 100.339 64.9525 100.217 64.2239 100.094C55.6588 98.6457 48.7302 92.2209 47.0016 83.708C44.3608 70.702 44.3608 57.298 47.0016 44.292Z" clip-rule="evenodd"></path>
  <defs>
    <linearGradient id="paint0_linear_533_70609" x1="63.5" x2="63.5" y1="8" y2="120" gradientUnits="userSpaceOnUse">
      <stop stop-color="#123000"></stop>
      <stop offset="1" stop-color="#14FF00"></stop>
    </linearGradient>
  </defs>
</svg>
