<svg xmlns="http://www.w3.org/2000/svg" width="64" height="64" fill="none" id="dashboard-apps">
  <path fill="#3CD8FA" d="M7 41a4 4 0 0 1 4-4h12a4 4 0 0 1 4 4v12a4 4 0 0 1-4 4H11a4 4 0 0 1-4-4V41Z"></path>
  <path fill="#FF639B" d="M5 15a4 4 0 0 1 4-4h14a4 4 0 0 1 4 4v14a4 4 0 0 1-4 4H9a4 4 0 0 1-4-4V15zm26 26a4 4 0 0 1 4-4h14a4 4 0 0 1 4 4v14a4 4 0 0 1-4 4H35a4 4 0 0 1-4-4V41z"></path>
  <path fill="#FFD646" d="M31 9a4 4 0 0 1 4-4h20a4 4 0 0 1 4 4v20a4 4 0 0 1-4 4H35a4 4 0 0 1-4-4V9Z"></path>
</svg>
