<svg xmlns="http://www.w3.org/2000/svg" viewBox="0 0 64 64" id="database">
  <path fill="#036" d="M25,35H2v6c0,3.16,7.54,4,12,4s12-.84,12-4v-6h-1Z"></path>
  <path fill="#1f6ed4" d="M25,29H2v6c0,3.16,7.54,4,12,4s12-.84,12-4v-6h-1Z"></path>
  <path fill="#39bae8" d="M25,23H2v6c0,3.16,7.54,4,12,4s12-.84,12-4v-6h-1Z"></path>
  <rect width="20" height="19" x="42" y="43" fill="#8e8e90" rx="2.65" ry="2.65"></rect>
  <path fill="#5bc4ed" d="M60,7.57v11.43c0,.55-.45,1-1,1h-12c-.55,0-1-.45-1-1V3c0-.55,.45-1,1-1h7.2c.26,0,.5,.1,.69,.28l4.8,4.57c.2,.19,.31,.45,.31,.72Z"></path>
  <ellipse cx="14" cy="23" fill="#b9edf8" rx="12" ry="4"></ellipse>
  <path fill="#348498" d="M60,7.57v1.43h-5.67c-.73,0-1.33-.6-1.33-1.33V2h1.2c.26,0,.5,.1,.69,.28l4.8,4.57c.2,.19,.31,.45,.31,.72Z"></path>
  <path fill="#f7b733" d="M59.83,28h-8.83v-3c0-1.36-.64-2-2-2h-4.94c-1.38,0-2.06,.65-2.06,2v12.39c0,1.44,1.17,2.61,2.61,2.61h14.91c1.37,0,2.48-1.11,2.48-2.48v-7.42c0-1.16-.97-2.1-2.17-2.1Z"></path>
  <path fill="#ff808f" d="M62,45.65v3.35h-20v-3.35c0-1.46,1.19-2.65,2.65-2.65h14.7c1.46,0,2.65,1.19,2.65,2.65Z"></path>
  <rect width="12" height="5" x="46" y="54" fill="#ffad60" rx="1" ry="1"></rect>
  <rect width="6" height="2" x="50" y="10" fill="#ffeea6" rx="1" ry="1"></rect>
  <rect width="8" height="2" x="49" y="14" fill="#ffeea6" rx="1" ry="1"></rect>
  <rect width="3" height="2" x="49" y="6" fill="#ffeea6" rx="1" ry="1"></rect>
  <rect width="12" height="2" x="46" y="50" fill="#5bc4ed" rx="1" ry="1"></rect>
  <path fill="#49494b" d="M39,33c.55,0,1-.45,1-1s-.45-1-1-1h-5V12h5c.55,0,1-.45,1-1s-.45-1-1-1h-6c-.55,0-1,.45-1,1V31h-3c-.55,0-1,.45-1,1s.45,1,1,1h3v21c0,.55,.45,1,1,1h6c.55,0,1-.45,1-1s-.45-1-1-1h-5v-20h5Z"></path>
</svg>
