<svg xmlns="http://www.w3.org/2000/svg" xml:space="preserve" viewBox="0 0 512 512" id="edit">
  <path d="M305.874 67.358H70.781c-33.064 0-59.868 26.804-59.868 59.868v42.379h354.829v-42.379c0-33.064-26.804-59.868-59.868-59.868" style="fill:#429dda"></path>
  <path d="M10.913 169.605V409.58c0 33.064 26.804 59.868 59.868 59.868h235.093c33.064 0 59.868-26.804 59.868-59.868V169.605z" style="fill:#fff"></path>
  <path d="M286.639 244.7h184.552v70.528H286.639z" style="fill:#429dda" transform="rotate(-60.443 378.906 279.954)"></path>
  <path d="m364.073 377.615-68.822 49.922 7.481-84.705z" style="fill:#fff"></path>
  <path d="m298.566 390.002-3.315 37.535 30.496-22.122z" style="fill:#429dda"></path>
  <path d="m471.429 217.773 16.825-29.671a7.455 7.455 0 0 0-2.808-10.163l-73.666-41.772a7.457 7.457 0 0 0-10.164 2.808l-16.825 29.671a7.455 7.455 0 0 0 2.808 10.163l73.666 41.772a7.457 7.457 0 0 0 10.164-2.808" style="fill:#fff"></path>
  <path d="m499.582 138.659-20.294 35.788-61.351-34.789 20.294-35.788c3.154-5.562 10.22-7.514 15.783-4.36l41.208 23.366c5.562 3.155 7.515 10.221 4.36 15.783" style="fill:#429dda"></path>
  <path d="M70.78 474.35h235.092c35.715 0 64.771-29.056 64.771-64.767v-33.609l86.31-152.201 1.894 1.074c5.922 3.352 13.475 1.28 16.845-4.658l16.821-29.664a12.25 12.25 0 0 0 1.168-9.387 12.27 12.27 0 0 0-5.816-7.463l-1.895-1.075 17.879-31.524c4.481-7.903 1.695-17.98-6.209-22.465l-41.21-23.365c-8.138-4.598-18.079-1.52-22.465 6.209l-17.872 31.521-1.897-1.076c-5.917-3.36-13.48-1.269-16.845 4.658l-16.826 29.674c-3.356 5.921-1.269 13.48 4.658 16.845l1.89 1.072-16.428 28.971v-85.891c0-35.715-29.056-64.772-64.771-64.772h-5.72V42.552c0-2.709-2.192-4.902-4.902-4.902s-4.902 2.192-4.902 4.902v19.904h-61.48V42.552a4.9 4.9 0 0 0-4.902-4.902 4.9 4.9 0 0 0-4.902 4.902v19.904h-61.478V42.552a4.9 4.9 0 0 0-4.902-4.902 4.9 4.9 0 0 0-4.902 4.902v19.904H86.307V42.552a4.9 4.9 0 0 0-4.902-4.902 4.9 4.9 0 0 0-4.902 4.902v19.904H70.78c-35.713 0-64.769 29.056-64.769 64.772v282.355c0 35.71 29.057 64.767 64.769 64.767m232-76.327 13.925 7.898-15.624 11.33zm22.646 1.572-21.699-12.305 3.216-36.421 48.075 27.26zm36.802-28.66-22.13-12.55 86.193-151.998 22.134 12.55zm62.393-233.124 17.874-31.522a6.677 6.677 0 0 1 9.1-2.513l41.21 23.365c3.199 1.817 4.34 5.883 2.513 9.1l-17.879 31.521zm-35.567 33.25 16.821-29.664a2.57 2.57 0 0 1 3.49-.967c81.024 45.948-56.959-32.294 73.666 41.775.594.335 1.02.881 1.202 1.541a2.52 2.52 0 0 1-.244 1.939l-16.826 29.669a2.556 2.556 0 0 1-3.48.962l-6.142-3.483q-.007-.006-.013-.012l-61.354-34.786-.012-.004-6.139-3.481a2.563 2.563 0 0 1-.969-3.489m28.708 30.489L331.57 353.548l-22.159-12.566 86.191-151.996zM15.815 127.228c0-30.311 24.657-54.968 54.966-54.968h5.723v25.586a4.9 4.9 0 0 0 4.902 4.902 4.9 4.9 0 0 0 4.902-4.902V72.26h61.478v25.586a4.9 4.9 0 0 0 4.902 4.902 4.9 4.9 0 0 0 4.902-4.902V72.26h61.478v25.586a4.9 4.9 0 0 0 4.902 4.902 4.9 4.9 0 0 0 4.902-4.902V72.26h61.478v25.586c0 2.709 2.192 4.902 4.902 4.902s4.902-2.192 4.902-4.902V72.26h5.72c30.311 0 54.968 24.657 54.968 54.968v37.477H15.815zm0 47.28H360.84v55.9l-62.383 110.014c-.203.359-.556 1.554-.593 1.908-.053.506-7.465 84.287-7.497 84.778a4.902 4.902 0 0 0 7.759 4.399l62.713-45.492v23.568c0 30.306-24.657 54.963-54.968 54.963H70.78c-30.308 0-54.966-24.657-54.966-54.963z" style="fill:#40437e"></path>
  <path d="M94.124 229.859h188.408c2.709 0 4.902-2.192 4.902-4.902s-2.192-4.902-4.902-4.902H94.124c-2.707 0-4.902 2.192-4.902 4.902s2.195 4.902 4.902 4.902M94.124 324.429h188.408c2.709 0 4.902-2.192 4.902-4.902s-2.192-4.902-4.902-4.902H94.124c-2.707 0-4.902 2.192-4.902 4.902s2.195 4.902 4.902 4.902M94.124 418.999h139.289c2.709 0 4.902-2.192 4.902-4.902s-2.192-4.902-4.902-4.902H94.124c-2.707 0-4.902 2.192-4.902 4.902s2.195 4.902 4.902 4.902" style="fill:#40437e"></path>
</svg>
