<svg xmlns="http://www.w3.org/2000/svg" enable-background="new 0 0 500 500" viewBox="0 0 500 500" id="education">
  <g>
    <polygon fill="#E5E5E5" points="192.2 350.4 214.7 461.8 273.6 461.8 298.2 350.6"></polygon>
  </g>
  <g>
    <path fill="#F4AEAE" d="M319.6,179c1.6-8.3,6.5-15.7,13.7-20.1c5.6-3.5,11.4-4.9,12.1,3.8c1.2,17.3-11.7,68.4-23.2,57.4
		C314.4,212.7,317,191.9,319.6,179z"></path>
  </g>
  <g>
    <path fill="#F4AEAE" d="M166.8,179c-1.6-8.3-6.5-15.7-13.7-20.1c-5.6-3.5-11.4-4.9-12.1,3.8c-1.2,17.3,11.7,68.4,23.2,57.4
		C172,212.7,169.4,191.9,166.8,179z"></path>
  </g>
  <g>
    <path fill="#995861" d="M161.7,164.1c0,0-4.5,17.6-2.5,38.3c2,20.7,18.8,61.2,18.8,61.2s-12.4-30.6,5.2-32.6s30.4-10.1,30.4-10.1
		l-4.8,15.5l21.8-13.6l-1.5,7.9l44.3-35.2c0,0,25.9,13.4,34.9,33.1c9,19.7,4.3,28.3,4.3,28.3s18.9-21.7,14.3-49.3
		c-4.6-27.7,2-43.4,2-43.4H161.7z"></path>
  </g>
  <g>
    <rect width="167.2" height="26.3" x="161.7" y="137.8" fill="#126972"></rect>
  </g>
  <g>
    <ellipse cx="244.8" cy="224.8" fill="#FFD2D2" rx="82.4" ry="89.4"></ellipse>
  </g>
  <g>
    <polygon fill="#FFD2D2" points="274.3 340.9 274.3 295.5 245.2 295.5 216.2 295.5 216.2 340.9 192.2 350.6 245.2 379.5 298.2 350.6"></polygon>
  </g>
  <g>
    <polygon fill="#E55151" points="238 410.2 226.2 397.5 245.2 379.5 263.9 399.1 252.4 410.2 263.9 461.8 224.7 461.8"></polygon>
  </g>
  <g>
    <polygon fill="#D33C3C" points="245.2 379.5 263.9 399.1 252.4 410.2 263.9 461.8 244.3 461.8"></polygon>
  </g>
  <g>
    <path fill="#126972" d="M194.1,351.7l25.8,110.1h-148V447c0-52.6,42.7-95.3,95.3-95.3H194.1z"></path>
  </g>
  <g>
    <path fill="#084745" d="M296.5,351.7l-25.8,110.1h148V447c0-52.6-42.7-95.3-95.3-95.3H296.5z"></path>
  </g>
  <g>
    <path fill="#FFC0C0" d="M244.3,290.5c-41.8,0-76.4-33.8-81.7-77.5c-0.5,3.9-0.7,7.8-0.7,11.9c0,49.4,36.9,89.4,82.4,89.4
		c45.5,0,82.4-40,82.4-89.4c0-4-0.2-8-0.7-11.9C320.7,256.7,286.1,290.5,244.3,290.5z"></path>
  </g>
  <g>
    <polyline fill="#126972" points="248.2 137.8 162.2 137.8 127.8 128.8 244.5 61.8 248.1 61.8 363.8 128.8 329.3 137.8 243.4 137.8"></polyline>
  </g>
  <g>
    <polygon fill="#126266" points="245.8 137.8 162.2 137.8 127.8 128.8 244.5 61.8 245.8 61.8"></polygon>
  </g>
  <g>
    <polygon fill="#095151" points="98.2 109.3 127.8 128.8 244.5 61.8 248.1 61.8 363.8 128.8 392.9 105.6 245.5 25.1"></polygon>
  </g>
  <g>
    <path fill="#FF0" d="M345,144.3h-10V72.7c0-11.9-9.6-21.5-21.5-21.5h-36.6v-10h36.6c17.4,0,31.5,14.1,31.5,31.5V144.3z"></path>
  </g>
  <g>
    <polygon fill="#FF0" points="342 154.6 360.2 191.2 342 191.2 338.2 191.2 319.9 191.2 338.2 154.6"></polygon>
  </g>
  <g>
    <circle cx="339.4" cy="154.6" r="17.6" fill="#FFDA00"></circle>
  </g>
</svg>
