<svg xmlns="http://www.w3.org/2000/svg" xml:space="preserve" id="email" x="0" y="0" style="enable-background:new 0 0 512 512" version="1.1" viewBox="0 0 512 512">
  <path d="M242.757,6.452L0.351,202.324v36.503H256h255.649v-36.503L269.243,6.452
	C261.518,0.21,250.482,0.21,242.757,6.452z" style="fill:#ff9102"></path>
  <linearGradient id="SVGID_1_" x1="61.447" x2="522.057" y1="491.336" y2="30.717" gradientTransform="matrix(1.0667 0 0 -1.0667 3.267 557.533)" gradientUnits="userSpaceOnUse">
    <stop offset="0" style="stop-color:#fff"></stop>
    <stop offset="1" style="stop-color:#e8efee"></stop>
  </linearGradient>
  <path d="M469.509,441.27H42.491c-11.636,0-21.07-9.434-21.07-21.07V21.07
	C21.421,9.434,30.854,0,42.491,0h427.018c11.636,0,21.07,9.434,21.07,21.07v399.131C490.579,431.838,481.146,441.27,469.509,441.27z
	" style="fill:url(#SVGID_1_)"></path>
  <linearGradient id="SVGID_2_" x1="460.683" x2="-4.007" y1="143.278" y2="105.868" gradientTransform="matrix(1.0667 0 0 -1.0667 3.267 557.533)" gradientUnits="userSpaceOnUse">
    <stop offset="0" style="stop-color:#c2cece;stop-opacity:0"></stop>
    <stop offset=".179" style="stop-color:#afbcbc;stop-opacity:.179"></stop>
    <stop offset="1" style="stop-color:#5b6a6a"></stop>
  </linearGradient>
  <path d="M490.579,408.463v8.202c0,13.583-11.024,24.606-24.606,24.606H46.028
	c-13.583,0-24.606-11.024-24.606-24.606v-8.202H490.579z" style="fill:url(#SVGID_2_)"></path>
  <g>
    <rect width="271.104" height="15.452" x="120.448" y="66.72" style="fill:#c2cece"></rect>
    <rect width="271.104" height="15.452" x="120.448" y="128.523" style="fill:#c2cece"></rect>
    <rect width="271.104" height="15.452" x="120.448" y="191.733" style="fill:#c2cece"></rect>
    <rect width="271.104" height="15.452" x="120.448" y="254.944" style="fill:#c2cece"></rect>
  </g>
  <linearGradient id="SVGID_3_" x1="461.628" x2="353.618" y1="285.998" y2="394.008" gradientTransform="matrix(1.0667 0 0 -1.0667 3.267 557.533)" gradientUnits="userSpaceOnUse">
    <stop offset="0" style="stop-color:#c2cece;stop-opacity:0"></stop>
    <stop offset=".179" style="stop-color:#afbcbc;stop-opacity:.179"></stop>
    <stop offset="1" style="stop-color:#5b6a6a"></stop>
  </linearGradient>
  <path d="M425.262,208.593c-21.018,0-40.277-7.513-55.254-19.99l-5.849,1.027l126.42,126.42V178.707
	C474.739,197.002,451.361,208.593,425.262,208.593z" style="fill:url(#SVGID_3_)"></path>
  <linearGradient id="SVGID_4_" x1="236.938" x2="236.938" y1="240.377" y2="62.468" gradientTransform="matrix(1.0667 0 0 -1.0667 3.267 557.533)" gradientUnits="userSpaceOnUse">
    <stop offset="0" style="stop-color:#ffc200"></stop>
    <stop offset=".268" style="stop-color:#fb0"></stop>
    <stop offset=".659" style="stop-color:#ffa801"></stop>
    <stop offset="1" style="stop-color:#ff9102"></stop>
  </linearGradient>
  <path d="M511.649,202.791V490.93c0,11.631-9.439,21.07-21.07,21.07H21.421
	c-11.631,0-21.07-9.439-21.07-21.07V202.791L258.81,406.651L511.649,202.791z" style="fill:url(#SVGID_4_)"></path>
  <linearGradient id="SVGID_5_" x1="237.879" x2="237.879" y1="104.578" y2="42.858" gradientTransform="matrix(1.0667 0 0 -1.0667 3.267 557.533)" gradientUnits="userSpaceOnUse">
    <stop offset="0" style="stop-color:#ffc200"></stop>
    <stop offset=".268" style="stop-color:#fb0"></stop>
    <stop offset=".659" style="stop-color:#ffa801"></stop>
    <stop offset="1" style="stop-color:#ff9102"></stop>
  </linearGradient>
  <path d="M508.807,501.465L272.034,310.559c-7.718-6.223-18.732-6.223-26.45,0L5.201,504.375
	c3.866,4.657,9.695,7.625,16.22,7.625h469.157C498.373,512,505.163,507.757,508.807,501.465z" style="fill:url(#SVGID_5_)"></path>
  <linearGradient id="SVGID_6_" x1="361.864" x2="429.014" y1="481.957" y2="321.966" gradientTransform="matrix(1.0667 0 0 -1.0667 3.267 557.533)" gradientUnits="userSpaceOnUse">
    <stop offset="0" style="stop-color:#d63305"></stop>
    <stop offset=".366" style="stop-color:#cf3004"></stop>
    <stop offset=".899" style="stop-color:#bc2602"></stop>
    <stop offset="1" style="stop-color:#b72401"></stop>
  </linearGradient>
  <circle cx="425.259" cy="129.227" r="86.387" style="fill:url(#SVGID_6_)"></circle>
  <path d="M405.781,94.628c0-2.802,1.132-5.012,3.395-6.629l16.816-16.169c1.185-1.185,2.64-1.779,4.366-1.779
	c1.94,0,3.691,0.513,5.254,1.536c1.562,1.025,2.345,2.4,2.345,4.123v107.037c0,1.726-0.864,3.1-2.587,4.124
	c-1.726,1.025-3.718,1.536-5.982,1.536c-2.372,0-4.394-0.511-6.063-1.536c-1.673-1.023-2.507-2.398-2.507-4.124V92.848l-5.659,7.115
	c-1.078,1.078-2.263,1.617-3.557,1.617c-1.617,0-2.991-0.727-4.124-2.182C406.347,97.942,405.781,96.353,405.781,94.628z" style="fill:#fff"></path>
  <linearGradient id="SVGID_7_" x1="125.283" x2="-211.817" y1="427.493" y2="764.583" gradientTransform="matrix(1.0667 0 0 -1.0667 3.267 557.533)" gradientUnits="userSpaceOnUse">
    <stop offset="0" style="stop-color:#c2cece;stop-opacity:0"></stop>
    <stop offset=".179" style="stop-color:#afbcbc;stop-opacity:.179"></stop>
    <stop offset="1" style="stop-color:#5b6a6a"></stop>
  </linearGradient>
  <path d="M27.99,426.77V27.638c0-11.636,9.434-21.07,21.07-21.07h427.018
	c4.135,0,7.98,1.209,11.234,3.267C483.579,3.932,477.01,0,469.509,0H42.491c-11.636,0-21.07,9.434-21.07,21.07v399.131
	c0,7.502,3.932,14.07,9.836,17.804C29.199,434.75,27.99,430.905,27.99,426.77z" style="fill:url(#SVGID_7_)"></path>
</svg>
