<svg xmlns="http://www.w3.org/2000/svg" width="48" height="48" id="online-start-talking">
  <path fill="#726658" d="M46.005 34h-44l3-14h37z"></path>
  <path fill="#27AAE1" d="M42.005 3v17h-37V3c0-1.1.9-2 2-2h33c1.1 0 2 .9 2 2z"></path>
  <path d="M46.005 34h-22V1h16c1.1 0 2 .9 2 2v17l4 14z" opacity=".1"></path>
  <path fill="#F7941D" d="M47.005 31.11v11.73c0 .2-.03.39-.09.6l-.73 2.19c-.29.83-1.05 1.37-1.9 1.37h-10.57c-.85 0-1.61-.54-1.89-1.35l-.73-2.19c-.07-.23-.1-.42-.1-.62v-2.1l-5.02-5.02c-.56-.56-.95-1.3-.98-2.09-.01-.3.02-.59.09-.87.17-.7.58-1.29 1.17-1.71 1.17-.84 2.87-.67 3.94.4l.81.81-.01-4.15c0-.09 0-.19.01-.28.11-1.22.91-2.26 2-2.66.15-.06.32-.1.49-.13a3.04 3.04 0 0 1 1.5.13V24c0-.03 0-.05.01-.08.02-.53.24-1 .58-1.34.36-.36.86-.58 1.42-.58 1.1 0 2 .9 2 2v2.17c.47-.17.99-.21 1.5-.13.17.03.34.07.5.13.9.33 1.6 1.1 1.87 2.05a3.02 3.02 0 0 1 1.63-.18c.22.05.35.08.47.13 1.17.38 2.03 1.6 2.03 2.94z"></path>
  <path d="M44.97 28.166a3.23 3.23 0 0 0-.461-.122 3.049 3.049 0 0 0-1.507.136c1.162.394 2.002 1.599 2.002 2.93v11.73c0 .197-.029.386-.091.595l-.729 2.2A2.017 2.017 0 0 1 42.285 47h2c.85 0 1.61-.542 1.899-1.365l.729-2.2c.063-.209.091-.398.091-.595V31.11c.001-1.345-.854-2.562-2.034-2.944zm-3.965-1.996V34c0 .55-.45 1-1 1s-1-.45-1-1v-7.83c.47-.17.99-.21 1.5-.13.17.03.34.07.5.13zm-4-4.17v12c0 .55-.45 1-1 1s-1-.45-1-1V23.92c.02-.53.24-1 .58-1.34.36-.36.86-.58 1.42-.58zm-4 3.17V34c0 .55-.45 1-1 1s-1-.45-1-1v-6.17c.11-1.22.91-2.26 2-2.66z" opacity=".1"></path>
  <path fill="#F7941D" d="M23.005 33.63c-.03.79-.42 1.53-.98 2.09l-5.02 5.02v2.1c0 .2-.03.39-.1.62l-.73 2.19c-.28.81-1.04 1.35-1.89 1.35H3.715c-.25 0-.49-.05-.71-.14-.55-.2-.98-.64-1.19-1.23l-.73-2.19c-.04-.16-.07-.3-.08-.45-.01-.05-.01-.1-.01-.15V31.11c0-.04 0-.08.01-.12.04-1.28.87-2.44 2-2.81.01-.01.01-.01.02-.01.12-.05.25-.08.47-.13.51-.08 1.03-.04 1.51.14.04.01.08.02.12.04.27-.95.97-1.72 1.87-2.05h.01c.16-.06.32-.1.49-.13a3.04 3.04 0 0 1 1.5.13V24c0-.07 0-.14.01-.2.1-1.01.96-1.8 1.99-1.8h.01c.56 0 1.05.22 1.41.58.34.34.56.81.58 1.34.01.03.01.05.01.08v1.17c.47-.17.99-.21 1.5-.13.17.03.34.07.49.13h.01c1.09.41 1.88 1.44 1.99 2.66.01.09.01.19.01.28l-.01 4.15.81-.81c1.07-1.07 2.77-1.24 3.94-.4.59.42 1 1.01 1.17 1.71.07.28.1.57.09.87z"></path>
  <g opacity=".1">
    <path d="m6.999 26.169.006.001v-.003zM22.913 32.76a2.93 2.93 0 0 0-1.17-1.71c-.78-.56-1.793-.661-2.701-.356.25.087.492.198.713.356.59.42 1 1.01 1.17 1.71.07.28.1.57.09.87-.03.79-.42 1.53-.98 2.09l-5.02 5.02v2.1c0 .2-.03.39-.1.62l-.73 2.19c-.28.81-1.04 1.35-1.89 1.35h1.988c.85 0 1.61-.54 1.89-1.35l.73-2.19c.07-.23.1-.42.1-.62v-2.1l5.02-5.02c.56-.56.95-1.3.98-2.09.01-.3-.02-.59-.09-.87zM3.135 28.22c.01-.035.03-.066.042-.101-.054.016-.107.031-.154.051l-.032.014c.047.016.098.017.144.036z"></path>
  </g>
  <path d="M15.005 25.17V34c0 .55-.45 1-1 1s-1-.45-1-1v-8.83c.47-.17.99-.21 1.5-.13.17.03.34.07.49.13h.01zm-4-3.17v12c0 .55-.45 1-1 1s-1-.45-1-1V23.8c.1-1.01.96-1.8 1.99-1.8h.01zm-4 4.17V34c0 .55-.45 1-1 1s-1-.45-1-1v-5.82c.04.01.08.02.12.04.27-.95.97-1.72 1.87-2.05h.01zm-4 2.01v18.68c-.55-.2-.98-.64-1.19-1.23l-.73-2.19c-.04-.16-.07-.3-.08-.45v-12c.04-1.28.87-2.44 2-2.81z" opacity=".1"></path>
  <circle cx="16" cy="8" r="3" fill="#E6E7E8"></circle>
  <path fill="#E6E7E8" d="M18 13h-4c-1.654 0-3 1.346-3 3v4h10v-4c0-1.654-1.346-3-3-3zm17-8H25c-1.103 0-2 .897-2 2v6c0 1.103.897 2 2 2h10c1.103 0 2-.897 2-2V7c0-1.103-.897-2-2-2z"></path>
  <path fill="#27AAE1" d="M28 11c-.13 0-.26-.03-.38-.08-.13-.05-.23-.12-.33-.21l-.12-.15a.757.757 0 0 1-.09-.18.636.636 0 0 1-.06-.18c-.01-.07-.02-.14-.02-.2 0-.26.11-.52.29-.71.38-.37 1.04-.37 1.42 0 .18.19.29.45.29.71 0 .06-.01.13-.02.2-.01.06-.03.12-.06.18-.02.06-.05.12-.09.18l-.12.15c-.19.18-.45.29-.71.29zm4 0c-.13 0-.26-.02-.38-.08-.13-.05-.23-.12-.33-.21-.18-.19-.29-.45-.29-.71 0-.26.11-.52.29-.71.09-.09.2-.16.33-.21.36-.16.81-.07 1.09.21.18.19.29.45.29.71 0 .26-.11.52-.29.71-.19.18-.45.29-.71.29z"></path>
  <path fill="none" d="M0 0h48v48H0z"></path>
</svg>
