<svg xmlns="http://www.w3.org/2000/svg" viewBox="0 0 64 64" id="project">
  <defs>
    <linearGradient id="a" x1="32" x2="32" y1="64" y2="0" gradientUnits="userSpaceOnUse">
      <stop offset=".001" stop-color="#ffd255"></stop>
      <stop offset=".999" stop-color="#ff78dc"></stop>
    </linearGradient>
  </defs>
  <path fill="url(#a)" d="M44.15039062,61.45019531c0,.22167969-.07421875.44726562-.20996094.62304688-.95117188,1.22460938-2.38769531,1.92675781-3.94042969,1.92675781H6c-2.75683594,0-5-2.24316406-5-5V11c0-2.28710938,1.54296875-4.27636719,3.75292969-4.83886719.53417969-.13964844,1.07910156.18652344,1.21582031.72167969s-.18652344,1.08007812-.72167969,1.21582031c-1.32324219.33691406-2.24707031,1.53027344-2.24707031,2.90136719v48c0,1.65429688,1.34570312,3,3,3h34c.91796875,0,1.76660156-.40820312,2.3359375-1.12207031.18164062-.25585938.47851562-.42285156.81445312-.42285156.55273438,0,1,.44238281,1,.99511719ZM7,53V5c0-2.75683594,2.24316406-5,5-5h26c.13366699,0,.26409912.02716064.3848877.07757568.12188721.05090332.23168945.12457275.32342529.2166748l11.99743652,11.99743652c.09210205.09173584.16577148.20153809.2166748.32342529.05041504.12078857.07757568.2512207.07757568.3848877v19c0,.55273438-.44726562,1-1,1s-1-.44726562-1-1V14h-11c-.55273438,0-1-.44726562-1-1V2H12c-1.65429688,0-3,1.34570312-3,3v48c0,1.65429688,1.34570312,3,3,3h23.79980469c.55273438,0,1,.44726562,1,1s-.44726562,1-1,1H12c-2.75683594,0-5-2.24316406-5-5ZM39,12h8.5859375l-8.5859375-8.5859375v8.5859375ZM22.70703125,13.29296875c-.390625-.390625-1.0234375-.390625-1.4140625,0l-4.29296875,4.29296875-2.29296875-2.29296875c-.390625-.390625-1.0234375-.390625-1.4140625,0s-.390625,1.0234375,0,1.4140625l3,3c.1953125.1953125.45117188.29296875.70703125.29296875s.51171875-.09765625.70703125-.29296875l5-5c.390625-.390625.390625-1.0234375,0-1.4140625ZM63,46.68652344v2.62695312c0,1.48144531-1.20507812,2.68652344-2.68652344,2.68652344-.4140625,0-.58105469.296875-.63378906.42382812s-.14453125.45507812.1484375.74804688c.5078125.50683594.78710938,1.18164062.78710938,1.89941406,0,.71679688-.27929688,1.39160156-.78710938,1.89941406l-1.85742188,1.85742188c-1.015625,1.01660156-2.78417969,1.01464844-3.79980469,0-.29101562-.29394531-.61816406-.20214844-.74707031-.1484375-.12695312.05273438-.42382812.21972656-.42382812.63378906,0,1.48144531-1.20507812,2.68652344-2.68652344,2.68652344h-2.62695312c-1.48144531,0-2.68652344-1.20507812-2.68652344-2.68652344,0-.4140625-.296875-.58105469-.42382812-.63378906-.12597656-.05371094-.45507812-.14550781-.74804688.1484375-1.01269531,1.01367188-2.78222656,1.015625-3.79882812,0l-1.85742188-1.85742188c-.5078125-.5078125-.78710938-1.18261719-.78710938-1.89941406,0-.71777344.27929688-1.39257812.78710938-1.90039062.29296875-.29199219.20117188-.62011719.1484375-.74707031s-.21972656-.42382812-.63378906-.42382812c-1.48144531,0-2.68652344-1.20507812-2.68652344-2.68652344v-2.62695312c0-1.48144531,1.20507812-2.68652344,2.68652344-2.68652344.4140625,0,.58105469-.296875.63378906-.42382812s.14453125-.45507812-.1484375-.74804688c-.5078125-.50683594-.78710938-1.18164062-.78710938-1.89941406,0-.71679688.27929688-1.39160156.78710938-1.89941406l1.85742188-1.85742188c1.01757812-1.015625,2.78613281-1.01464844,3.79980469,0,.29101562.29296875.61816406.20117188.74707031.1484375.12695312-.05273438.42382812-.21972656.42382812-.63378906,0-1.48144531,1.20507812-2.68652344,2.68652344-2.68652344h2.62695312c1.48144531,0,2.68652344,1.20507812,2.68652344,2.68652344,0,.4140625.296875.58105469.42382812.63378906.12597656.05273438.45507812.14453125.74804688-.1484375,1.01269531-1.015625,2.78222656-1.01660156,3.79882812,0l1.85742188,1.85742188c.5078125.5078125.78710938,1.18261719.78710938,1.89941406,0,.71777344-.27929688,1.39257812-.78710938,1.90039062-.29296875.29199219-.20117188.62011719-.1484375.74707031s.21972656.42382812.63378906.42382812c1.48144531,0,2.68652344,1.20507812,2.68652344,2.68652344ZM61,46.68652344c0-.37890625-.30761719-.68652344-.68652344-.68652344-1.10742188,0-2.05761719-.63574219-2.48144531-1.65820312-.42382812-1.0234375-.20117188-2.14453125.58203125-2.92773438.12988281-.12988281.20117188-.30175781.20117188-.48535156,0-.18261719-.07128906-.35546875-.20117188-.48535156l-1.85742188-1.85742188c-.26171875-.26074219-.71289062-.25976562-.96972656,0-.78515625.78222656-1.90527344,1.0078125-2.92871094.58203125-1.02246094-.42382812-1.65820312-1.37402344-1.65820312-2.48144531,0-.37890625-.30761719-.68652344-.68652344-.68652344h-2.62695312c-.37890625,0-.68652344.30761719-.68652344.68652344,0,1.10742188-.63574219,2.05761719-1.65820312,2.48144531-1.02441406.42773438-2.14550781.20019531-2.92773438-.58203125-.25878906-.25976562-.70996094-.26074219-.97070312,0l-1.85742188,1.85742188c-.12988281.12988281-.20117188.30273438-.20117188.48535156,0,.18359375.07128906.35546875.20117188.484375.78320312.78417969,1.00585938,1.90527344.58203125,2.92871094-.42382812,1.02246094-1.37402344,1.65820312-2.48144531,1.65820312-.37890625,0-.68652344.30761719-.68652344.68652344v2.62695312c0,.37890625.30761719.68652344.68652344.68652344,1.10742188,0,2.05761719.63574219,2.48144531,1.65820312.42382812,1.0234375.20117188,2.14453125-.58203125,2.92773438-.12988281.12988281-.20117188.30175781-.20117188.48535156,0,.18261719.07128906.35546875.20117188.48535156l1.85742188,1.85742188c.26074219.25976562.71289062.25878906.96972656,0,.52148438-.52050781,1.19238281-.79394531,1.88378906-.79394531.34863281,0,.70214844.06933594,1.04492188.21191406,1.02246094.42382812,1.65820312,1.37402344,1.65820312,2.48144531,0,.37890625.30761719.68652344.68652344.68652344h2.62695312c.37890625,0,.68652344-.30761719.68652344-.68652344,0-1.10742188.63574219-2.05761719,1.65820312-2.48144531,1.02539062-.42675781,2.14648438-.19921875,2.92773438.58203125.25878906.25878906.70898438.25976562.97070312,0l1.85742188-1.85742188c.12988281-.12988281.20117188-.30273438.20117188-.48535156,0-.18359375-.07128906-.35546875-.20117188-.484375-.78320312-.78417969-1.00585938-1.90527344-.58203125-2.92871094.42382812-1.02246094,1.37402344-1.65820312,2.48144531-1.65820312.37890625,0,.68652344-.30761719.68652344-.68652344v-2.62695312ZM55,48c0,3.30859375-2.69140625,6-6,6s-6-2.69140625-6-6,2.69140625-6,6-6,6,2.69140625,6,6ZM53,48c0-2.20605469-1.79394531-4-4-4s-4,1.79394531-4,4,1.79394531,4,4,4,4-1.79394531,4-4ZM44,17h-18c-.55273438,0-1,.44726562-1,1s.44726562,1,1,1h18c.55273438,0,1-.44726562,1-1s-.44726562-1-1-1ZM22.70703125,23.29296875c-.390625-.390625-1.0234375-.390625-1.4140625,0l-4.29296875,4.29296875-2.29296875-2.29296875c-.390625-.390625-1.0234375-.390625-1.4140625,0s-.390625,1.0234375,0,1.4140625l3,3c.1953125.1953125.45117188.29296875.70703125.29296875s.51171875-.09765625.70703125-.29296875l5-5c.390625-.390625.390625-1.0234375,0-1.4140625ZM45,28c0-.55273438-.44726562-1-1-1h-18c-.55273438,0-1,.44726562-1,1s.44726562,1,1,1h18c.55273438,0,1-.44726562,1-1ZM22.70703125,33.29296875c-.390625-.390625-1.0234375-.390625-1.4140625,0l-4.29296875,4.29296875-2.29296875-2.29296875c-.390625-.390625-1.0234375-.390625-1.4140625,0s-.390625,1.0234375,0,1.4140625l3,3c.1953125.1953125.45117188.29296875.70703125.29296875s.51171875-.09765625.70703125-.29296875l5-5c.390625-.390625.390625-1.0234375,0-1.4140625ZM35,38c0-.55273438-.44726562-1-1-1h-8c-.55273438,0-1,.44726562-1,1s.44726562,1,1,1h8c.55273438,0,1-.44726562,1-1ZM21.29296875,43.29296875l-4.29296875,4.29296875-2.29296875-2.29296875c-.390625-.390625-1.0234375-.390625-1.4140625,0s-.390625,1.0234375,0,1.4140625l3,3c.1953125.1953125.45117188.29296875.70703125.29296875s.51171875-.09765625.70703125-.29296875l5-5c.390625-.390625.390625-1.0234375,0-1.4140625s-1.0234375-.390625-1.4140625,0ZM26,47c-.55273438,0-1,.44726562-1,1s.44726562,1,1,1h5c.55273438,0,1-.44726562,1-1s-.44726562-1-1-1h-5Z"></path>
</svg>
