<svg xmlns="http://www.w3.org/2000/svg" xml:space="preserve" id="qualification" width="512" height="512" x="0" y="0" enable-background="new 0 0 512 512" version="1.1" viewBox="0 0 512 512">
  <g>
    <g>
      <path fill="#FFCF17" fill-rule="evenodd" d="M45.675,18.198h260.92c15.111,0,27.475,12.363,27.475,27.475
			v363.304c0,15.111-12.363,27.475-27.475,27.475H45.675c-15.111,0-27.475-12.363-27.475-27.475V45.673
			C18.2,30.562,30.563,18.198,45.675,18.198z" clip-rule="evenodd"></path>
      <path fill="#5D6A84" d="M306.595,443.257H45.675c-18.902,0-34.281-15.378-34.281-34.28V45.673c0-18.902,15.379-34.28,34.281-34.28
			h260.92c18.902,0,34.28,15.378,34.28,34.28v363.304C340.875,427.879,325.497,443.257,306.595,443.257z M45.675,25.004
			c-11.397,0-20.67,9.272-20.67,20.669v363.304c0,11.397,9.272,20.669,20.67,20.669h260.92c11.396,0,20.669-9.272,20.669-20.669
			V45.673c0-11.397-9.272-20.669-20.669-20.669H45.675z"></path>
    </g>
    <g>
      <path fill="#5D6A84" d="M286.598,260.426h-106.17c-3.759,0-6.806-3.047-6.806-6.806c0-3.758,3.047-6.806,6.806-6.806h106.17
			c3.759,0,6.806,3.047,6.806,6.806C293.403,257.379,290.356,260.426,286.598,260.426z"></path>
    </g>
    <g>
      <path fill="#5D6A84" d="M286.499,289.978H180.526c-3.759,0-6.806-3.047-6.806-6.806s3.047-6.806,6.806-6.806h105.973
			c3.758,0,6.805,3.047,6.805,6.806S290.257,289.978,286.499,289.978z"></path>
    </g>
    <g>
      <rect width="58.334" height="58.333" x="65.671" y="239.229" fill="#8FD3F2" fill-rule="evenodd" clip-rule="evenodd"></rect>
      <path fill="#5D6A84" d="M124.005,304.369H65.671c-3.758,0-6.805-3.047-6.805-6.806v-58.333c0-3.759,3.047-6.806,6.805-6.806
			h58.334c3.759,0,6.805,3.047,6.805,6.806v58.333C130.81,301.322,127.764,304.369,124.005,304.369z M72.478,290.757h44.722v-44.722
			H72.478V290.757z"></path>
    </g>
    <g>
      <g>
        <path fill="#8FD3F2" fill-rule="evenodd" d="M185.259,123.052c40.151,0,66.43,49.206,45.375,72.081
				c-0.801,0.871-1.82,1.318-3.004,1.318h-84.746c-1.182,0-2.203-0.448-3.004-1.318
				C118.828,172.266,145.097,123.052,185.259,123.052z" clip-rule="evenodd"></path>
        <path fill="#5D6A84" d="M227.63,203.256h-84.746c-3.078,0-5.924-1.247-8.01-3.512c-10.49-11.394-12.199-28.571-4.576-45.951
				c8.198-18.689,28.371-37.547,54.961-37.547c26.586,0,46.758,18.856,54.956,37.544c7.624,17.378,5.915,34.557-4.573,45.952
				C233.556,202.009,230.71,203.256,227.63,203.256z M144.123,189.646h82.267c6.006-7.337,6.536-18.59,1.361-30.388
				c-6.42-14.634-22.049-29.4-42.492-29.4c-20.446,0-36.076,14.768-42.495,29.403C137.589,171.059,138.118,182.311,144.123,189.646z
				"></path>
      </g>
      <g>
        <circle cx="185.259" cy="82.095" r="26.121" fill="#23B7CC" fill-rule="evenodd" clip-rule="evenodd"></circle>
        <path fill="#5D6A84" d="M185.259,115.021c-18.156,0-32.927-14.771-32.927-32.926s14.771-32.926,32.927-32.926
				c18.154,0,32.924,14.771,32.924,32.926S203.413,115.021,185.259,115.021z M185.259,62.78c-10.65,0-19.315,8.665-19.315,19.315
				c0,10.65,8.665,19.315,19.315,19.315c10.649,0,19.313-8.665,19.313-19.315C204.571,71.445,195.908,62.78,185.259,62.78z"></path>
      </g>
    </g>
    <g>
      <g>
        <path fill="#8FD3F2" fill-rule="evenodd" d="M452.705,382.562l-63.839,37.09l39.268,67.842
				c2.527,4.366,7.077,6.721,12.1,6.248s9.06-3.636,10.721-8.398l6.99-20.045l20.855,3.969c4.953,0.941,9.713-0.974,12.633-5.085
				c2.92-4.113,3.167-9.236,0.64-13.604L452.705,382.562z" clip-rule="evenodd"></path>
        <path fill="#5D6A84" d="M438.969,500.607c-6.956,0-13.208-3.628-16.726-9.704l-39.267-67.843
				c-1.88-3.249-0.774-7.407,2.472-9.293l63.838-37.089c1.563-0.909,3.422-1.159,5.168-0.693c1.746,0.464,3.235,1.604,4.141,3.168
				l39.368,68.016c3.849,6.652,3.473,14.681-0.981,20.953c-3.695,5.203-9.421,8.187-15.708,8.187l0,0
				c-1.243,0-2.503-0.12-3.745-0.355l-15.091-2.872l-5.058,14.503c-2.531,7.258-8.857,12.214-16.509,12.934
				C440.239,500.577,439.599,500.607,438.969,500.607z M398.16,422.123l35.864,61.961c1.193,2.063,3.225,3.104,5.57,2.883
				c2.355-0.222,4.154-1.63,4.934-3.865l6.99-20.043c1.109-3.185,4.387-5.079,7.697-4.444l20.855,3.969
				c2.307,0.432,4.448-0.421,5.813-2.342c1.372-1.932,1.48-4.211,0.299-6.254l-35.953-62.116L398.16,422.123z"></path>
      </g>
      <g>
        <path fill="#8FD3F2" fill-rule="evenodd" d="M307.516,382.562l63.838,37.09l-39.267,67.842
				c-2.525,4.366-7.079,6.721-12.1,6.248c-5.022-0.473-9.06-3.636-10.721-8.398l-6.992-20.045l-20.854,3.969
				c-4.956,0.941-9.711-0.974-12.633-5.085c-2.92-4.113-3.168-9.236-0.641-13.604L307.516,382.562z" clip-rule="evenodd"></path>
        <path fill="#5D6A84" d="M321.251,500.607c-0.629,0-1.27-0.03-1.902-0.09c-7.65-0.72-13.977-5.676-16.508-12.933l-5.059-14.504
				l-15.089,2.871c-1.243,0.236-2.503,0.356-3.747,0.356c-6.285,0-12.009-2.983-15.706-8.185
				c-4.456-6.274-4.831-14.303-0.982-20.954l39.367-68.017c0.905-1.564,2.396-2.704,4.142-3.168
				c1.743-0.466,3.604-0.216,5.168,0.693l63.838,37.089c3.246,1.886,4.352,6.044,2.471,9.293l-39.266,67.843
				C334.462,496.979,328.21,500.607,321.251,500.607z M302.278,458.492c2.846,0,5.455,1.793,6.422,4.565l6.992,20.044
				c0.779,2.235,2.577,3.644,4.933,3.865c2.353,0.221,4.378-0.819,5.571-2.881l35.864-61.963l-52.069-30.252l-35.953,62.117
				c-1.182,2.042-1.074,4.321,0.299,6.254c1.363,1.92,3.496,2.779,5.814,2.339l20.852-3.967
				C301.43,458.532,301.856,458.492,302.278,458.492z"></path>
      </g>
      <g>
        <path fill="#E989B7" fill-rule="evenodd" d="M388.431,225.109l10.743,10.745
				c3.056,3.055,7.192,4.164,11.364,3.046l14.679-3.934c6.261-1.677,12.731,2.06,14.411,8.319l3.93,14.679
				c1.119,4.172,4.147,7.2,8.321,8.319l14.679,3.933c6.258,1.677,9.995,8.15,8.316,14.409l-3.932,14.678
				c-1.119,4.174-0.01,8.31,3.045,11.365l10.746,10.746c4.58,4.581,4.58,12.055,0,16.637l-10.746,10.745
				c-3.055,3.055-4.164,7.192-3.045,11.365l3.932,14.678c1.679,6.259-2.059,12.732-8.316,14.409l-14.679,3.934
				c-4.174,1.118-7.202,4.146-8.321,8.318l-3.93,14.679c-1.68,6.26-8.15,9.996-14.411,8.319l-14.679-3.934
				c-4.172-1.119-8.309-0.01-11.364,3.046l-10.743,10.745c-4.584,4.581-12.059,4.581-16.639,0l-10.746-10.745
				c-3.055-3.056-7.19-4.165-11.364-3.046l-14.679,3.934c-6.258,1.676-12.731-2.06-14.408-8.319l-3.935-14.679
				c-1.116-4.172-4.144-7.2-8.317-8.318l-14.678-3.934c-6.259-1.677-9.996-8.15-8.32-14.409l3.934-14.678
				c1.119-4.173,0.01-8.31-3.045-11.365l-10.744-10.745c-4.584-4.582-4.584-12.056,0-16.637l10.744-10.746
				c3.055-3.055,4.164-7.191,3.045-11.365l-3.934-14.678c-1.676-6.259,2.062-12.732,8.32-14.409l14.678-3.933
				c4.174-1.119,7.201-4.147,8.317-8.319l3.935-14.679c1.677-6.259,8.15-9.996,14.408-8.319l14.679,3.934
				c4.174,1.118,8.31,0.009,11.364-3.046l10.746-10.745C376.372,220.527,383.847,220.527,388.431,225.109z" clip-rule="evenodd"></path>
        <path fill="#5D6A84" d="M380.109,444.597c-4.967,0-9.63-1.929-13.13-5.43l-10.744-10.746c-1.336-1.334-2.975-1.77-4.793-1.285
				l-14.678,3.934c-1.567,0.419-3.181,0.632-4.797,0.632c-8.396,0-15.775-5.66-17.947-13.765l-3.934-14.678
				c-0.491-1.836-1.67-3.015-3.504-3.506l-14.68-3.934c-9.888-2.648-15.78-12.851-13.133-22.741l3.936-14.681
				c0.49-1.834,0.059-3.446-1.285-4.791l-10.744-10.745c-3.502-3.5-5.432-8.164-5.432-13.13c0-4.967,1.93-9.631,5.434-13.132
				l10.742-10.744c1.344-1.345,1.775-2.957,1.283-4.792l-3.933-14.678c-2.648-9.894,3.244-20.095,13.132-22.744l14.679-3.933
				c1.835-0.492,3.014-1.671,3.505-3.505l3.936-14.682c2.17-8.104,9.55-13.763,17.947-13.763c1.614,0,3.228,0.212,4.795,0.633
				l14.678,3.933c1.816,0.486,3.459,0.05,4.793-1.285l10.745-10.745c3.499-3.5,8.162-5.43,13.129-5.43c0.001,0,0,0,0,0
				c4.966,0,9.63,1.928,13.132,5.429l10.746,10.747c1.332,1.332,2.975,1.771,4.789,1.284l14.68-3.933
				c1.567-0.42,3.182-0.633,4.797-0.633c8.394,0,15.774,5.659,17.947,13.762l3.932,14.682c0.492,1.833,1.672,3.013,3.508,3.506
				l14.679,3.933c4.783,1.281,8.785,4.356,11.269,8.657c2.482,4.301,3.143,9.305,1.86,14.088l-3.932,14.676
				c-0.491,1.835-0.06,3.447,1.284,4.792l10.745,10.746c7.239,7.24,7.239,19.02,0.001,26.26L478.8,353.607
				c-1.344,1.344-1.775,2.957-1.285,4.791l3.934,14.679c1.281,4.781,0.621,9.785-1.861,14.086
				c-2.483,4.301-6.485,7.376-11.269,8.657l-14.679,3.934c-1.836,0.492-3.016,1.672-3.508,3.507l-3.931,14.677
				c-2.173,8.105-9.554,13.765-17.948,13.765c-1.615,0-3.229-0.213-4.797-0.632l-14.679-3.934c-1.819-0.487-3.458-0.048-4.792,1.285
				l-10.742,10.746C389.738,442.668,385.075,444.597,380.109,444.597z M352.853,413.332c4.863,0,9.482,1.941,13.006,5.465
				l10.746,10.746c0.93,0.931,2.175,1.442,3.505,1.442c1.332,0,2.579-0.513,3.51-1.444l10.742-10.744
				c3.524-3.524,8.144-5.465,13.009-5.465c1.643,0,3.303,0.222,4.931,0.658l14.677,3.934c0.42,0.112,0.849,0.169,1.275,0.169
				c2.246,0,4.221-1.512,4.802-3.677l3.93-14.677c1.739-6.487,6.649-11.395,13.134-13.131l14.678-3.933
				c1.271-0.341,2.338-1.163,3.002-2.315c0.666-1.152,0.844-2.487,0.504-3.757l-3.934-14.68c-1.738-6.484,0.06-13.19,4.808-17.938
				l10.745-10.745c1.933-1.933,1.933-5.079,0-7.013l-10.745-10.745c-4.748-4.749-6.546-11.454-4.808-17.939l3.932-14.678
				c0.342-1.272,0.164-2.606-0.502-3.759c-0.664-1.152-1.73-1.974-3.002-2.314l-14.678-3.933
				c-6.486-1.738-11.395-6.646-13.133-13.13l-3.932-14.681c-0.58-2.162-2.555-3.675-4.801-3.675c-0.427,0-0.855,0.057-1.275,0.169
				l-14.678,3.933c-1.627,0.437-3.287,0.658-4.93,0.658c-4.865,0-9.484-1.941-13.008-5.465l-10.744-10.745
				c-0.932-0.93-2.177-1.443-3.509-1.443c-1.329,0-2.574,0.513-3.503,1.442l-10.748,10.746c-3.523,3.524-8.143,5.465-13.006,5.465
				l0,0c-1.645-0.001-3.304-0.222-4.932-0.658l-14.679-3.934c-0.419-0.112-0.847-0.169-1.272-0.169
				c-2.248,0-4.222,1.512-4.801,3.676l-3.936,14.68c-1.734,6.483-6.643,11.393-13.129,13.131l-14.678,3.933
				c-2.642,0.708-4.216,3.434-3.509,6.076l3.934,14.675c1.738,6.485-0.059,13.191-4.808,17.939l-10.742,10.745
				c-0.932,0.932-1.445,2.176-1.445,3.506s0.514,2.575,1.443,3.505l10.746,10.747c4.747,4.748,6.544,11.454,4.806,17.938
				l-3.935,14.679c-0.706,2.64,0.868,5.365,3.51,6.073l14.678,3.934c6.486,1.736,11.395,6.646,13.13,13.132l3.934,14.677
				c0.58,2.165,2.554,3.676,4.8,3.676c0.427,0,0.855-0.057,1.274-0.169l14.679-3.934
				C349.549,413.554,351.208,413.332,352.853,413.332z"></path>
      </g>
      <g>
        <path fill="#8FD3F2" fill-rule="evenodd" d="M380.109,396.029c36.515,0,66.297-29.783,66.297-66.297
				c0-36.516-29.782-66.297-66.297-66.297c-36.516,0-66.298,29.782-66.298,66.297C313.812,366.246,343.594,396.029,380.109,396.029z
				" clip-rule="evenodd"></path>
        <path fill="#5D6A84" d="M380.109,402.834c-40.31,0-73.103-32.794-73.103-73.103c0-40.309,32.793-73.103,73.103-73.103
				s73.103,32.794,73.103,73.103C453.212,370.041,420.419,402.834,380.109,402.834z M380.109,270.24
				c-32.804,0-59.491,26.688-59.491,59.492c0,32.804,26.688,59.492,59.491,59.492s59.491-26.688,59.491-59.492
				C439.601,296.928,412.913,270.24,380.109,270.24z"></path>
      </g>
      <g>
        <path fill="#5D6A84" d="M369.228,360.008c-1.742,0-3.484-0.665-4.813-1.993l-25.178-25.175c-2.658-2.658-2.658-6.967,0-9.625
				s6.968-2.658,9.624,0l20.366,20.363l42.129-42.13c2.657-2.658,6.968-2.658,9.624,0c2.659,2.658,2.659,6.966,0,9.624
				l-46.942,46.942C372.71,359.344,370.968,360.008,369.228,360.008z"></path>
      </g>
    </g>
    <g>
      <path fill="#5D6A84" d="M105.491,285.745c-1.742,0-3.484-0.665-4.813-1.993l-22.945-22.945c-2.658-2.658-2.658-6.966-0.002-9.625
			c2.659-2.657,6.969-2.657,9.625,0l18.135,18.133l32.417-32.417c2.657-2.658,6.967-2.658,9.624,0c2.658,2.658,2.658,6.966,0,9.624
			l-37.23,37.229C108.974,285.081,107.231,285.745,105.491,285.745z"></path>
    </g>
    <g>
      <path fill="#5D6A84" d="M286.598,361.539h-106.17c-3.759,0-6.806-3.047-6.806-6.806s3.047-6.806,6.806-6.806h106.17
			c3.759,0,6.806,3.047,6.806,6.806S290.356,361.539,286.598,361.539z"></path>
    </g>
    <g>
      <path fill="#5D6A84" d="M286.499,391.091H180.526c-3.759,0-6.806-3.047-6.806-6.806c0-3.758,3.047-6.805,6.806-6.805h105.973
			c3.758,0,6.805,3.047,6.805,6.805C293.304,388.044,290.257,391.091,286.499,391.091z"></path>
    </g>
    <g>
      <rect width="58.334" height="58.333" x="65.671" y="340.342" fill="#8FD3F2" fill-rule="evenodd" clip-rule="evenodd"></rect>
      <path fill="#5D6A84" d="M124.005,405.48H65.671c-3.758,0-6.805-3.047-6.805-6.806v-58.333c0-3.759,3.047-6.806,6.805-6.806h58.334
			c3.759,0,6.805,3.047,6.805,6.806v58.333C130.81,402.434,127.764,405.48,124.005,405.48z M72.478,391.87h44.722v-44.722H72.478
			V391.87z"></path>
    </g>
    <g>
      <path fill="#5D6A84" d="M105.491,386.858c-1.805,0-3.536-0.717-4.813-1.993l-22.945-22.946c-2.658-2.658-2.658-6.966,0-9.625
			c2.656-2.657,6.967-2.657,9.623,0l18.135,18.134l32.416-32.419c2.658-2.657,6.968-2.657,9.625,0c2.658,2.658,2.658,6.967,0,9.625
			l-37.229,37.231C109.026,386.141,107.296,386.858,105.491,386.858z"></path>
    </g>
  </g>
</svg>
