<svg xmlns="http://www.w3.org/2000/svg" viewBox="0 0 512 512" id="service">
  <g>
    <path fill="#fedb41" d="M490.64,313.68v39.25l-28.82,2.82a108.728,108.728,0,0,1-15.11,35.75l18.61,22.45-27.74,27.68-22.45-18.61a104.586,104.586,0,0,1-35.81,15.06l-2.82,29.1H337.2l-2.82-29.1a107.491,107.491,0,0,1-35.81-15.06l-22.45,18.61-27.74-27.68,18.61-22.45a104.769,104.769,0,0,1-15.12-35.75l-29.15-2.82V313.68l29.15-2.82a108.149,108.149,0,0,1,12.42-31.39c.86-1.47,1.76-2.93,2.7-4.36l-18.61-22.45,27.74-27.69,22.45,18.61a104.762,104.762,0,0,1,35.81-15.05l2.82-29.1h39.3l2.82,29.1a101.541,101.541,0,0,1,16.57,5.06,113.944,113.944,0,0,1,19.24,9.99l22.45-18.61,27.4,27.69-18.61,22.45a104.769,104.769,0,0,1,15.12,35.75ZM432.9,333.3a76.19,76.19,0,1,0-76.19,76.08A76.131,76.131,0,0,0,432.9,333.3Z"></path>
    <path fill="#00efd1" d="M356.71 257.23a76.075 76.075 0 1 1-76.19 76.07A76.131 76.131 0 0 1 356.71 257.23zm34.65 76.07a34.655 34.655 0 1 0-34.65 34.61A34.622 34.622 0 0 0 391.36 333.3zM395.89 183.85v49.74a101.541 101.541 0 0 0-16.57-5.06l-2.82-29.1H337.2l-2.82 29.1a104.762 104.762 0 0 0-35.81 15.05l-22.45-18.61-27.74 27.69 18.61 22.45c-.94 1.43-1.84 2.89-2.7 4.36l-.22-.13H21.36V186.89a39.738 39.738 0 0 1 14.03-30.31l13.79-12.83H373.36v.44l10.07 10.76A39.771 39.771 0 0 1 395.89 183.85zM261.77 236.92V194.57H155.48v42.35zM110 215.74A21.642 21.642 0 0 0 88.36 194.1H81.87a21.64 21.64 0 0 0 0 43.28h6.49A21.646 21.646 0 0 0 110 215.74z"></path>
    <path fill="#fedb41" d="M356.71,298.7a34.605,34.605,0,1,1-34.66,34.6A34.622,34.622,0,0,1,356.71,298.7Z"></path>
    <path fill="#00acea" d="M343.11,62.11l30.25,81.64H49.18L79.43,62.11a26.517,26.517,0,0,1,24.85-17.29H318.26A26.5,26.5,0,0,1,343.11,62.11Z"></path>
    <rect width="106.29" height="42.35" x="155.48" y="194.57" fill="#00acea"></rect>
    <path fill="#fedb41" d="M88.36,194.1a21.64,21.64,0,0,1,0,43.28H81.87a21.64,21.64,0,1,1,0-43.28Z"></path>
    <polygon fill="#00acea" points="96.44 279.78 96.44 331.02 21.36 331.02 21.36 279.34 96.44 279.34 96.44 279.78"></polygon>
    <path fill="#083863" d="M88.36,186H81.87A29.518,29.518,0,0,0,60.9,194.741a29.1,29.1,0,0,0-8.665,20.784A29.532,29.532,0,0,0,81.87,245h6.49A29.324,29.324,0,0,0,118,215.6,29.635,29.635,0,0,0,88.36,186ZM98,225.193A13.37,13.37,0,0,1,88.36,229H81.87a13.5,13.5,0,1,1,0-27h6.49A13.617,13.617,0,0,1,102,215.6,13.416,13.416,0,0,1,98,225.193Z"></path>
    <path fill="#083863" d="M491.59,305.717,468,303.443a112.384,112.384,0,0,0-11.729-27.682l14.895-18a8,8,0,0,0-.484-10.733l-27.406-27.69a8,8,0,0,0-10.8-.532l-18,14.963c-3.464-2.01-7.48-3.816-10.48-5.438V183.85a48.008,48.008,0,0,0-14.834-34.538L380.6,140.19,350.625,59.42A34.575,34.575,0,0,0,318.26,37H104.28A34.581,34.581,0,0,0,71.928,59.421l-29.59,79.813-12.45,11.392A47.788,47.788,0,0,0,13,186.89V331.02A8.3,8.3,0,0,0,21.36,339H96.44c4.418,0,7.56-3.562,7.56-7.98V287H251.271a167.546,167.546,0,0,0-5.793,16.271l-23.389,2.361A7.962,7.962,0,0,0,215,313.68v39.25a7.879,7.879,0,0,0,7.089,7.963l23.434,2.274a112.137,112.137,0,0,0,11.651,27.682l-14.936,18a8,8,0,0,0,.5,10.768l27.736,27.68a8,8,0,0,0,10.754.5l18.048-14.962a115.563,115.563,0,0,0,27.69,11.685l2.272,23.35A7.921,7.921,0,0,0,337.2,475h39.3a7.923,7.923,0,0,0,7.963-7.138l2.271-23.392a111.921,111.921,0,0,0,27.735-11.629l18.006,14.937a8,8,0,0,0,10.755-.491l27.741-27.677a8,8,0,0,0,.508-10.767L456.53,390.811a116.3,116.3,0,0,0,11.685-27.649l23.384-2.27a8.159,8.159,0,0,0,7.4-7.962V313.68A8.159,8.159,0,0,0,491.59,305.717ZM86.929,65.111A18.625,18.625,0,0,1,104.28,53H318.26a18.6,18.6,0,0,1,17.348,12.105L361.864,136H60.676ZM29,186.89a31.86,31.86,0,0,1,11.385-24.209c.093-.079.274-.035.364-.119L52.325,152H369.479l8.11,8.542c.112.12.283.173.4.286A31.8,31.8,0,0,1,388,183.85v38.581c0-.109-.825-.227-1.21-.332l-2.3-23.656A8.216,8.216,0,0,0,376.5,191H337.2a8.191,8.191,0,0,0-7.963,7.443l-2.271,23.544a112.358,112.358,0,0,0-27.733,11.7l-18.007-14.9a7.853,7.853,0,0,0-10.642.511l-.584.711V194.57c0-4.419-3.812-7.57-8.23-7.57H155.48c-4.418,0-8.48,3.151-8.48,7.57v42.35c0,4.418,4.062,8.08,8.48,8.08h89.331l-2.082,2.038a7.758,7.758,0,0,0-.508,10.578L253.474,271H29ZM254,229H163V203h91ZM88,323H29V287H88Zm395,22.675-21.779,2.113a8.105,8.105,0,0,0-7.12,6.226,100.676,100.676,0,0,1-14.051,33.122,8,8,0,0,0,.523,9.469l13.944,16.835-17.429,17.386-16.85-13.965a8,8,0,0,0-9.523-.511,96.271,96.271,0,0,1-33.073,13.908,7.9,7.9,0,0,0-6.284,6.96L369.238,459H344.462l-2.119-21.782a7.949,7.949,0,0,0-6.3-7.008A99.626,99.626,0,0,1,302.9,416.269a8,8,0,0,0-9.433.581l-16.847,13.97-17.424-17.383L273.149,396.6a8,8,0,0,0,.5-9.537,96.452,96.452,0,0,1-13.963-33.023,7.843,7.843,0,0,0-6.906-6.257L231,345.667V320.943l21.781-2.12a7.92,7.92,0,0,0,6.969-6.228,99.991,99.991,0,0,1,11.471-29.068c0-.006-.012-.011-.009-.016.826-1.412,1.652-2.76,2.472-4.006a8,8,0,0,0-.53-9.5L259.2,253.169l17.424-17.394,16.845,13.964a8,8,0,0,0,9.518.514,96.433,96.433,0,0,1,33.076-13.9,8.251,8.251,0,0,0,6.284-7.266L344.462,207h24.776l2.119,22.086a8.125,8.125,0,0,0,6.294,7.16,94.138,94.138,0,0,1,15.264,4.716,106.529,106.529,0,0,1,17.888,9.32,8,8,0,0,0,9.432-.556L437.046,235.8,454.2,253.131,440.211,270a8,8,0,0,0-.5,9.538,96.522,96.522,0,0,1,13.965,33.025,8.209,8.209,0,0,0,7.225,6.257l22.1,2.12Z"></path>
    <path fill="#083863" d="M356.71,249.23A84.075,84.075,0,1,0,440.9,333.3,84.225,84.225,0,0,0,356.71,249.23Zm0,152.15A68.075,68.075,0,1,1,424.9,333.3,68.212,68.212,0,0,1,356.71,401.38Z"></path>
    <path fill="#083863" d="M356.71,290.7a42.605,42.605,0,1,0,42.65,42.6A42.679,42.679,0,0,0,356.71,290.7Zm0,69.21a26.605,26.605,0,1,1,26.65-26.61A26.665,26.665,0,0,1,356.71,359.91Z"></path>
  </g>
</svg>
