<svg xmlns="http://www.w3.org/2000/svg" viewBox="0 0 100 100" id="service">
  <path fill="#60a4ff" d="M22,90l12-8,29.65,6.59a11.66,11.66,0,0,0,10.89-3.26L98,61.2h0a11.66,11.66,0,0,0-17.73-1.47L66,74,42,70,58,58l-1.64-1.65a11.67,11.67,0,0,0-14.12-1.82L2,78Z"></path>
  <path fill="#eff6ff" d="M50,33.94A11.06,11.06,0,0,1,61.06,45l12,9.4v0a5.77,5.77,0,0,1,4.5-3.49l2.48-.35A5.75,5.75,0,0,0,85,44.94h0a.11.11,0,0,0,0,0,.09.09,0,0,0,0,0h0A5.7,5.7,0,0,0,80.1,39.3l-2.55-.37a5.67,5.67,0,0,1-4.46-3.47l0-.05a5.69,5.69,0,0,1,.7-5.6l1.55-2.07a5.71,5.71,0,0,0-.53-7.45l-.08-.08a5.71,5.71,0,0,0-7.45-.53l-2.07,1.55a5.69,5.69,0,0,1-5.6.7l-.06,0a5.71,5.71,0,0,1-3.47-4.46l-.36-2.56A5.71,5.71,0,0,0,50.05,10H50a5.71,5.71,0,0,0-5.65,4.89l-.36,2.56a5.71,5.71,0,0,1-3.47,4.46l-.06,0a5.69,5.69,0,0,1-5.6-.7l-2.07-1.55a5.71,5.71,0,0,0-7.45.53l-.08.08a5.71,5.71,0,0,0-.53,7.45l1.55,2.07a5.69,5.69,0,0,1,.7,5.6l0,.05a5.67,5.67,0,0,1-4.46,3.47l-2.55.37A5.71,5.71,0,0,0,15,44.94v.11h0a5.69,5.69,0,0,0,4.89,5.48l2.51.36a5.76,5.76,0,0,1,4.51,3.51h0l12-9.4A11.06,11.06,0,0,1,50,33.94Z"></path>
  <path fill="#2f67f3" d="M26.91,56.53a2,2,0,0,1-1.85-1.24A3.73,3.73,0,0,0,22.17,53l-2.56-.36A7.74,7.74,0,0,1,13,45.05v-.11a7.74,7.74,0,0,1,6.61-7.62L22.17,37A3.77,3.77,0,0,0,24.63,31l-1.55-2.07a7.75,7.75,0,0,1,.72-10.07l.08-.08a7.74,7.74,0,0,1,10.06-.71L36,19.63a3.78,3.78,0,0,0,6-2.46l.36-2.56A7.74,7.74,0,0,1,50,8h.1a7.74,7.74,0,0,1,7.63,6.61L58,17.17a3.77,3.77,0,0,0,6,2.46l2.07-1.55a7.74,7.74,0,0,1,10.06.72l.09.08a7.75,7.75,0,0,1,.71,10.06L75.37,31A3.77,3.77,0,0,0,77.83,37l2.56.36A7.74,7.74,0,0,1,87,44.94v.11a7.74,7.74,0,0,1-6.61,7.63L77.83,53a3.73,3.73,0,0,0-2.89,2.25l-1.87-.7-1.84-.8a7.74,7.74,0,0,1,6-4.71l2.56-.36A3.73,3.73,0,0,0,83,45.05v-.11a3.72,3.72,0,0,0-3.18-3.66l-2.56-.37a7.76,7.76,0,0,1-5.09-12.3l1.55-2.07a3.71,3.71,0,0,0-.35-4.84l-.08-.08a3.71,3.71,0,0,0-4.83-.34l-2.07,1.55a7.72,7.72,0,0,1-7.56,1l-.12-.05a7.71,7.71,0,0,1-4.63-6l-.36-2.56A3.73,3.73,0,0,0,50.05,12H50a3.73,3.73,0,0,0-3.67,3.18l-.36,2.56a7.77,7.77,0,0,1-12.31,5.09l-2.07-1.55a3.73,3.73,0,0,0-4.84.35l-.08.08a3.71,3.71,0,0,0-.34,4.83l1.55,2.07a7.76,7.76,0,0,1-5.09,12.3l-2.56.37A3.72,3.72,0,0,0,17,44.94v.11a3.73,3.73,0,0,0,3.18,3.67l2.56.36a7.73,7.73,0,0,1,6,4.69,2,2,0,0,1-1.09,2.61A1.87,1.87,0,0,1,26.91,56.53Zm46.16-1.94h0Z"></path>
  <path fill="#2f67f3" d="M22 92a2 2 0 01-1.11-3.66l12-8a2 2 0 011.54-.29l29.65 6.59a9.6 9.6 0 009-2.7L95.3 61.1a9.66 9.66 0 00-13.62 0L67.41 75.41a2 2 0 01-1.74.56l-24-4a2 2 0 01-.87-3.57L55 57.78h0a9.67 9.67 0 00-11.7-1.51L3 79.73a2 2 0 11-2-3.46L41.23 52.8a13.68 13.68 0 0116.54 2.14l1.64 1.64A2 2 0 0160 58.14a2.05 2.05 0 01-.8 1.46L46.94 68.8l18.37 3.06L78.85 58.32A13.65 13.65 0 0199.63 60a2 2 0 01-.2 2.55L76 86.73a13.57 13.57 0 01-12.76 3.81L34.4 84.14 23.11 91.67A2.05 2.05 0 0122 92zM61.06 47a2 2 0 01-2-2 9.06 9.06 0 00-18.12 0 2 2 0 01-4 0 13.06 13.06 0 0126.12 0A2 2 0 0161.06 47z"></path>
</svg>
