<svg xmlns="http://www.w3.org/2000/svg" id="skillset" viewBox="0 0 64 64">
  <path d="m58,2h-24c-2.21,0-4,1.79-4,4v3.1c0,.55.45,1,1,1s1-.45,1-1v-3.1c0-1.1.9-2,2-2h24c1.1,0,2,.9,2,2v34c0,1.1-.9,2-2,2h-19.45c-.55,0-1,.45-1,1s.45,1,1,1h19.45c2.21,0,4-1.79,4-4V6c0-2.21-1.79-4-4-4Z"></path>
  <path d="m30.37,39.05l-5-1-2.37-1.58v-2.31c3.27-1.43,5.64-4.57,5.96-8.28,1.75-.43,3.04-2,3.04-3.88v-3c0-5.19-4.28-11-10-11h-4.53c-2.94,0-5.61,1.53-7.08,4.04-2.47.3-4.39,2.41-4.39,4.96v5c0,1.88,1.29,3.45,3.04,3.88.32,3.71,2.69,6.85,5.96,8.28v2.31l-2.37,1.58-5,1c-3.26.65-5.63,3.54-5.63,6.86v15.08c0,.55.45,1,1,1s1-.45,1-1v-15.08c0-2.38,1.69-4.44,4.02-4.9l4.56-.91,2.57,3.44.83,1.66-.98,12.72c-.02.29.09.58.29.79l3,3c.2.19.45.29.71.29s.51-.1.71-.29l3-3c.2-.21.31-.5.29-.79l-.98-12.72.83-1.66,2.57-3.44,4.56.91c2.33.47,4.02,2.53,4.02,4.9v15.08c0,.55.45,1,1,1s1-.45,1-1v-15.08c0-3.32-2.37-6.21-5.63-6.86Zm-19.37-14.05v-1.34c.88-.43,2.4-1.37,3.39-3.09,1.76,1.2,5.74,3.23,12.61,3.42v1.01c0,3.49-2.25,6.47-5.39,7.56,0,0,0,0,0,0-.82.28-1.7.44-2.61.44s-1.79-.16-2.61-.44c0,0,0,0,0,0-3.14-1.09-5.39-4.07-5.39-7.56Zm5.11,16.47l-1.68-2.22,1.44-.96,1.71,1.71-1.47,1.47Zm2.89-2.89l-1.2-1.19-.8-.8h0v-1.79c.64.13,1.31.2,2,.2s1.36-.07,2-.2v1.78h0s-.8.81-.8.81l-1.2,1.19Zm2.89,2.89l-1.47-1.46h0s1.71-1.72,1.71-1.72l1.44.96-1.68,2.22Z"></path>
  <path d="M30 48c-.55 0-1 .45-1 1v12c0 .55.45 1 1 1s1-.45 1-1v-12c0-.55-.45-1-1-1ZM8 48c-.55 0-1 .45-1 1v12c0 .55.45 1 1 1s1-.45 1-1v-12c0-.55-.45-1-1-1ZM37.29 14.71c.19.19.44.29.71.29.02 0 .04 0 .06 0 .28-.02.55-.15.73-.37l4-5c.34-.43.27-1.06-.16-1.41-.43-.34-1.06-.27-1.41.16l-3.3 4.13-1.21-1.21c-.39-.39-1.02-.39-1.41 0s-.39 1.02 0 1.41l2 2ZM46 11h10c.55 0 1-.45 1-1s-.45-1-1-1h-10c-.55 0-1 .45-1 1s.45 1 1 1ZM46 15h5c.55 0 1-.45 1-1s-.45-1-1-1h-5c-.55 0-1 .45-1 1s.45 1 1 1ZM35.29 23.71l2 2c.19.19.44.29.71.29.02 0 .04 0 .06 0 .28-.02.55-.15.73-.37l4-5c.34-.43.27-1.06-.16-1.41-.43-.34-1.06-.27-1.41.16l-3.3 4.13-1.21-1.21c-.39-.39-1.02-.39-1.41 0s-.39 1.02 0 1.41ZM46 22h10c.55 0 1-.45 1-1s-.45-1-1-1h-10c-.55 0-1 .45-1 1s.45 1 1 1ZM46 26h5c.55 0 1-.45 1-1s-.45-1-1-1h-5c-.55 0-1 .45-1 1s.45 1 1 1ZM38.06 37c.28-.02.55-.15.73-.37l4-5c.34-.43.27-1.06-.16-1.41-.43-.34-1.06-.27-1.41.16l-3.3 4.13-1.21-1.21c-.39-.39-1.02-.39-1.41 0s-.39 1.02 0 1.41l2 2c.19.19.44.29.71.29.02 0 .04 0 .06 0ZM46 33h10c.55 0 1-.45 1-1s-.45-1-1-1h-10c-.55 0-1 .45-1 1s.45 1 1 1ZM46 37h5c.55 0 1-.45 1-1s-.45-1-1-1h-5c-.55 0-1 .45-1 1s.45 1 1 1Z"></path>
</svg>
