<svg xmlns="http://www.w3.org/2000/svg" enable-background="new 0 0 64 64" viewBox="0 0 64 64" id="skills">
  <circle cx="46" cy="53" r="4" fill="#f4b2b0"></circle>
  <circle cx="46" cy="39.001" r="4" fill="#f4b2b0"></circle>
  <circle cx="46" cy="25.001" r="4" fill="#f4b2b0"></circle>
  <circle cx="46" cy="11.001" r="4" fill="#f4b2b0"></circle>
  <polygon fill="#f4b2b0" points="20 41 16 39 11.333 40.333 16 45"></polygon>
  <polygon fill="#f4b2b0" points="24 45 28.667 40.333 24 39 20 41"></polygon>
  <path fill="#b3404a" d="M2,58h36c0.552,0,1-0.448,1-1v-7c0-4.565-3.066-8.63-7.456-9.884L25,38.246v-1.599
		c2.43-1.411,4.22-3.808,4.798-6.647H30c2.206,0,4-1.794,4-4c0-1.005-0.385-1.914-1-2.618v-8.383c0-2.443-1.763-4.483-4.084-4.916
		C28.484,7.763,26.444,6,24,6h-7C11.486,6,7,10.486,7,16v7.382C6.385,24.086,6,24.995,6,26c0,2.206,1.794,4,4,4h0.202
		c0.578,2.839,2.368,5.236,4.798,6.647v1.599l-6.544,1.87C4.066,41.37,1,45.435,1,50v7C1,57.552,1.448,58,2,58z M15.901,40.068
		l2.411,1.206L16,43.586l-2.758-2.758L15.901,40.068z M24.099,40.068l2.658,0.76L24,43.586l-2.312-2.312L24.099,40.068z M20,42.414
		l2.117,2.117L21.382,46h-2.764l-0.735-1.469L20,42.414z M18.905,48h2.19l0.799,8h-3.79L18.905,48z M37,50v6h-4v-5h-2v5h-7.096
		l-0.88-8.811l0.628-1.256C23.764,45.974,23.882,46,24,46c0.256,0,0.512-0.098,0.707-0.293l4.25-4.25l2.037,0.582
		C34.531,43.049,37,46.323,37,50z M30,28v-4c1.103,0,2,0.897,2,2S31.103,28,30,28z M17,8h7c1.654,0,3,1.346,3,3c0,0.552,0.448,1,1,1
		c1.653,0,2.999,1.346,2.999,3v7.143C30.678,22.058,30.347,22,30,22c0-0.265-0.105-0.52-0.293-0.707l-5-5
		c-0.237-0.237-0.578-0.339-0.908-0.272c-0.329,0.067-0.603,0.296-0.728,0.608C22.009,19.284,19.475,21,16.615,21H11
		c-0.552,0-1,0.448-1,1c-0.347,0-0.678,0.058-1,0.142V16C9,11.589,12.589,8,17,8z M8,26c0-1.103,0.897-2,2-2v4
		C8.897,28,8,27.103,8,26z M12,28v-5h4.615c3.185,0,6.057-1.653,7.659-4.312L28,22.414V28c0,4.411-3.589,8-8,8S12,32.411,12,28z
		 M20,38c1.045,0,2.052-0.162,3-0.461v0.843l-3,1.5l-3-1.5v-0.843C17.948,37.838,18.955,38,20,38z M3,50
		c0-3.677,2.469-6.951,6.005-7.961l2.037-0.582l4.25,4.25C15.488,45.902,15.744,46,16,46c0.118,0,0.236-0.026,0.348-0.068
		l0.628,1.256L16.094,56H9v-5H7v5H3V50z"></path>
  <rect width="7" height="2" x="53" y="6" fill="#b3404a"></rect>
  <rect width="10" height="2" x="53" y="10" fill="#b3404a"></rect>
  <rect width="5" height="2" x="53" y="14" fill="#b3404a"></rect>
  <rect width="7" height="2" x="53" y="20" fill="#b3404a"></rect>
  <rect width="10" height="2" x="53" y="24" fill="#b3404a"></rect>
  <rect width="5" height="2" x="53" y="28" fill="#b3404a"></rect>
  <rect width="7" height="2" x="53" y="34" fill="#b3404a"></rect>
  <rect width="10" height="2" x="53" y="38" fill="#b3404a"></rect>
  <rect width="5" height="2" x="53" y="42" fill="#b3404a"></rect>
  <rect width="7" height="2" x="53" y="48" fill="#b3404a"></rect>
  <rect width="10" height="2" x="53" y="52" fill="#b3404a"></rect>
  <rect width="5" height="2" x="53" y="56" fill="#b3404a"></rect>
  <path fill="#b3404a" d="M46 58c2.757 0 5-2.243 5-5 0-.809-.211-1.562-.553-2.238l1.194-.995-1.28-1.536-1.156.964C48.334 48.46 47.225 48 46 48c-2.757 0-5 2.243-5 5S43.243 58 46 58zM46 50c.607 0 1.171.184 1.643.495l-3.283 2.737 1.28 1.536 3.206-2.672C48.937 52.383 49 52.683 49 53c0 1.654-1.346 3-3 3s-3-1.346-3-3S44.346 50 46 50zM46 44.001c2.757 0 5-2.243 5-5 0-.809-.211-1.562-.553-2.238l1.194-.995-1.28-1.536-1.156.964c-.87-.734-1.979-1.194-3.204-1.194-2.757 0-5 2.243-5 5S43.243 44.001 46 44.001zM46 36.001c.607 0 1.171.184 1.643.495l-3.283 2.737 1.28 1.536 3.206-2.672C48.937 38.385 49 38.684 49 39.001c0 1.654-1.346 3-3 3s-3-1.346-3-3S44.346 36.001 46 36.001zM46 30.001c2.757 0 5-2.243 5-5 0-.809-.211-1.562-.553-2.238l1.194-.995-1.28-1.536-1.156.964c-.87-.734-1.979-1.194-3.204-1.194-2.757 0-5 2.243-5 5S43.243 30.001 46 30.001zM46 22.001c.607 0 1.171.184 1.643.495l-3.283 2.737 1.28 1.536 3.206-2.672C48.937 24.385 49 24.684 49 25.001c0 1.654-1.346 3-3 3s-3-1.346-3-3S44.346 22.001 46 22.001zM50.36 6.232l-1.156.964C48.334 6.461 47.225 6.001 46 6.001c-2.757 0-5 2.243-5 5s2.243 5 5 5 5-2.243 5-5c0-.809-.211-1.562-.553-2.238l1.194-.995L50.36 6.232zM49 11.001c0 1.654-1.346 3-3 3s-3-1.346-3-3 1.346-3 3-3c.607 0 1.171.184 1.643.495l-3.283 2.737 1.28 1.536 3.206-2.672C48.937 10.385 49 10.684 49 11.001z"></path>
</svg>
