<svg xmlns="http://www.w3.org/2000/svg" viewBox="0 0 512 512" id="tool">
  <g>
    <path fill="#fedb41" d="M223.8,402.31a151.563,151.563,0,0,0,64.4.02C355.59,387.64,406.05,327.7,406.05,256c0-82.72-67.16-149.78-150-149.78s-150,67.06-150,149.78C106.05,327.67,156.46,387.58,223.8,402.31ZM493.55,221.2v69.6l-51.1,5a192.732,192.732,0,0,1-26.8,63.4l33,39.8-49.2,49.1-39.8-33a185.836,185.836,0,0,1-63.5,26.7l-5,51.6h-69.7l-5-51.6c-23-4.9-44.2-14.3-63.5-26.7l-39.8,33L63.95,399l33-39.8a185.762,185.762,0,0,1-26.8-63.4l-51.7-5V221.2l51.7-5a192.732,192.732,0,0,1,26.8-63.4l-33-39.8,49.2-49.1,39.8,33a185.836,185.836,0,0,1,63.5-26.7l5-51.6h69.7l5,51.6c23,4.9,44.2,14.3,63.5,26.7l39.8-33,48.6,49.1-33,39.8a185.762,185.762,0,0,1,26.8,63.4Z"></path>
    <path fill="#00acea" d="M256.05,106.22c82.84,0,150,67.06,150,149.78,0,71.7-50.46,131.64-117.85,146.33V295.64a89.819,89.819,0,0,0,19.42-13.85c28.11-28.12,28.11-75.54,0-103.65-6.71-6.72-14.69-11.76-25.18-15.95l-10.49-4.2v50.97a15.95,15.95,0,0,1-31.9,0V157.99l-10.49,4.2a68.314,68.314,0,0,0-25.18,15.94c-28.11,28.12-28.11,75.54,0,103.65a76.887,76.887,0,0,0,19.42,13.85V402.31C156.46,387.58,106.05,327.67,106.05,256,106.05,173.28,173.21,106.22,256.05,106.22Z"></path>
    <path fill="#00efd1" d="M307.62,178.14c28.11,28.11,28.11,75.53,0,103.65a89.819,89.819,0,0,1-19.42,13.85V402.33a151.563,151.563,0,0,1-64.4-.02V295.63a76.887,76.887,0,0,1-19.42-13.85c-28.11-28.11-28.11-75.53,0-103.65a68.314,68.314,0,0,1,25.18-15.94l10.49-4.2v50.97a15.95,15.95,0,0,0,31.9,0V157.99l10.49,4.2C292.93,166.38,300.91,171.42,307.62,178.14Z"></path>
  </g>
</svg>
